<?xml version="1.0" encoding="UTF-8"?>
<svg version="1.1" xmlns="http://www.w3.org/2000/svg" width="5000" height="3333">
<path d="M0 0 C1650 0 3300 0 5000 0 C5000 1099.89 5000 2199.78 5000 3333 C3350 3333 1700 3333 0 3333 C0 2233.11 0 1133.22 0 0 Z " fill="#EEE6DC" transform="translate(0,0)"/>
<path d="M0 0 C0 0.66 0 1.32 0 2 C3.3 2.33 6.6 2.66 10 3 C10 3.66 10 4.32 10 5 C10.61746094 5.04898437 11.23492188 5.09796875 11.87109375 5.1484375 C18.74140642 5.75494912 25.2121762 7.01927862 31.88256836 8.74633789 C40.95710423 10.93552817 49.53950112 11.45537391 58.83651733 11.53875732 C63.13380025 11.5799648 67.43004347 11.67286394 71.7265625 11.76171875 C73.02780312 11.7874295 73.02780312 11.7874295 74.35533142 11.81365967 C100.06692985 12.35692721 126.25993463 13.77318177 151.53955078 18.57617188 C155.88452583 19.32462164 160.24426397 19.45365272 164.640625 19.65625 C168.28738467 20.0294068 171.48591022 20.96914923 175 22 C177.68744122 22.47200744 180.36534393 22.90879233 183.0625 23.3125 C189.97647641 24.39956706 196.75513787 25.81661188 203.5625 27.4375 C212.79217878 29.62983642 222.04591481 31.23648722 231.43774414 32.56811523 C237.57754984 33.47160327 243.18158704 34.85339371 249 37 C254.33694892 38.71185154 259.59212925 39.59868742 265.1328125 40.33984375 C268.25527484 41.05877581 270.29528475 42.31999801 273 44 C275.10951741 44.63250848 275.10951741 44.63250848 277.3125 44.9375 C281.95545562 45.77977531 286.53841903 46.77112909 291.125 47.875 C292.10980347 48.09917603 292.10980347 48.09917603 293.11450195 48.32788086 C296.59956455 49.17750354 299.60572031 50.23731174 302.76953125 51.9375 C307.78647161 54.56827492 313.08520446 55.7883843 318.5625 57.125 C320.56396025 57.62697395 322.56526626 58.12956334 324.56640625 58.6328125 C325.97708374 58.98351807 325.97708374 58.98351807 327.41625977 59.34130859 C329.58288183 59.89366108 331.72945717 60.48134 333.875 61.109375 C336.72078125 61.92042266 339.53293249 62.56795966 342.4375 63.125 C343.30246094 63.29257813 344.16742187 63.46015625 345.05859375 63.6328125 C345.69925781 63.75398438 346.33992188 63.87515625 347 64 C347 64.66 347 65.32 347 66 C347.76183594 66.11601563 348.52367188 66.23203125 349.30859375 66.3515625 C354.25910846 67.22117672 359.15600882 68.2868277 364.0625 69.375 C365.04283203 69.58382813 366.02316406 69.79265625 367.03320312 70.0078125 C371.9208237 71.0961625 375.80586149 72.16612263 380 75 C385.76373063 77.32035574 391.54260385 79.02138327 397.6875 79.9375 C402.39090859 80.69004537 405.58506846 82.30138641 409.609375 84.76953125 C413.32144188 86.68015391 417.23133246 87.41158051 421.28515625 88.31640625 C424.46085435 89.11604246 427.07826035 90.53913017 430 92 C432.53953616 92.5946231 435.08540111 93.06661045 437.65234375 93.52734375 C440.25910965 94.05216683 442.59132241 94.87595046 445 96 C445 96.66 445 97.32 445 98 C446.175625 98.226875 447.35125 98.45375 448.5625 98.6875 C455.54313956 100.22010836 462.25376175 102.671259 469 105 C469 105.66 469 106.32 469 107 C470.0209375 107.22042969 470.0209375 107.22042969 471.0625 107.4453125 C480.0356688 109.52155102 488.44595057 112.64568366 497 116 C497 116.66 497 117.32 497 118 C498.9490625 118.3403125 498.9490625 118.3403125 500.9375 118.6875 C505.35928286 119.65932041 508.8177112 121.33304574 512.6640625 123.68359375 C515.08034836 125.04527993 517.55549917 126.13863 520.11279297 127.20776367 C522.0194074 128.00814709 523.90870841 128.84068805 525.796875 129.68359375 C532.77830734 132.78548171 539.73835364 135.76408057 546.9609375 138.2734375 C549 139 549 139 551 140 C551 140.66 551 141.32 551 142 C551.6290625 142.18175781 552.258125 142.36351562 552.90625 142.55078125 C558.37061108 144.15552584 563.69219738 145.93585454 569 148 C569 148.66 569 149.32 569 150 C570.1446875 150.3403125 570.1446875 150.3403125 571.3125 150.6875 C575.43826231 152.15599167 579.348264 153.93507885 583.31640625 155.78125 C585.05652991 156.5715245 586.81854209 157.31586384 588.6015625 158.00390625 C590.89567443 158.95667261 592.76001465 160.05045201 594.8125 161.4375 C598.06040399 163.52543828 601.17308696 164.96301446 604.84765625 166.12890625 C607.38692435 167.15659552 609.66552837 168.53027918 612.02661133 169.90991211 C614.09030405 171.04988341 616.18096235 172.03564573 618.33203125 173 C619.43514648 173.495 619.43514648 173.495 620.56054688 174 C622.07818052 174.67391884 623.5991156 175.34044564 625.12304688 176 C625.85201172 176.33 626.58097656 176.66 627.33203125 177 C627.98921143 177.28875 628.6463916 177.5775 629.32348633 177.875 C631.42027473 179.28201921 631.95415372 180.74177323 633 183 C634.93981618 183.90609992 634.93981618 183.90609992 637.125 184.25 C639.043125 184.62125 639.043125 184.62125 641 185 C641 185.66 641 186.32 641 187 C641.886875 187.268125 642.77375 187.53625 643.6875 187.8125 C646.80175259 188.92893017 649.18952727 190.28629712 652 192 C653.5159375 192.61875 653.5159375 192.61875 655.0625 193.25 C660.63744535 195.56669951 666.01642234 198.60396596 671 202 C671 202.66 671 203.32 671 204 C671.7425 204.0825 672.485 204.165 673.25 204.25 C676 205 676 205 677.8125 206.875 C680.40951822 209.3978177 682.70525488 210.18213691 686.09765625 211.2890625 C688 212 688 212 691 214 C691 214.66 691 215.32 691 216 C692.258125 216.33 693.51625 216.66 694.8125 217 C699.97456799 218.71800075 703.80068577 221.53775892 708.1015625 224.80859375 C714.79369601 229.8682796 721.68927105 234.54752389 729.2734375 238.15234375 C733.64913244 240.30059217 737.19795237 243.15540799 740.75 246.4375 C745.04183878 250.29682789 749.75481926 252.6676143 755 255 C755 255.66 755 256.32 755 257 C755.57234375 257.2784375 756.1446875 257.556875 756.734375 257.84375 C758.96617566 258.98273792 761.10870874 260.19936383 763.25 261.5 C763.95640625 261.9228125 764.6628125 262.345625 765.390625 262.78125 C765.92171875 263.1834375 766.4528125 263.585625 767 264 C767 264.66 767 265.32 767 266 C767.598125 266.103125 768.19625 266.20625 768.8125 266.3125 C771.37972748 267.11934292 772.1100857 268.1100857 774 270 C775.60899741 270.90506104 777.21910045 271.80823833 778.8359375 272.69921875 C784.3970974 276.04193761 789.5921891 280.06806913 794.6484375 284.125 C797.05277752 286.09658321 797.05277752 286.09658321 800 288 C800 288.66 800 289.32 800 290 C800.598125 290.12375 801.19625 290.2475 801.8125 290.375 C804 291 804 291 807 293 C807 293.66 807 294.32 807 295 C808.1446875 295.37125 808.1446875 295.37125 809.3125 295.75 C812.32130998 297.1494465 813.08793399 298.37090924 815 301 C816.63064764 302.05771739 818.30280873 303.05273046 820 304 C822.04049422 305.2704964 824.05017465 306.59431196 826 308 C826 308.66 826 309.32 826 310 C826.99 310.33 827.98 310.66 829 311 C829.33 311.66 829.66 312.32 830 313 C830.9075 313.4125 831.815 313.825 832.75 314.25 C835.95518233 315.97586741 837.39985548 317.59392779 839.5703125 320.4453125 C841.79126373 322.86044526 844.48952009 324.32115794 847.328125 325.921875 C849 327 849 327 850 329 C850.73347656 329.43570313 851.46695313 329.87140625 852.22265625 330.3203125 C855.34192825 332.20679205 857.77408151 334.38914275 860.4375 336.875 C863.40340107 339.62135254 866.34636418 342.34576826 869.5 344.875 C872 347 872 347 873.625 349.1875 C874.87917226 351.13235828 874.87917226 351.13235828 877 351.9375 C879 353 879 353 880.4375 355.5 C881.75530611 358.1631102 881.75530611 358.1631102 884.25 358.875 C887.72283679 360.29570596 889.539585 362.37922287 892.10546875 365.0625 C895.94255274 368.98661063 900.12596019 372.57760672 904.49609375 375.89453125 C907.08430325 378.07088838 908.92053324 380.29421228 910.9375 383 C913.99127268 386.92301134 916.7989198 389.31845945 921 392 C922.71905417 393.8415521 924.31997489 395.74407134 925.8984375 397.70703125 C927.73635207 399.71233953 929.59013913 401.41845802 931.6484375 403.1875 C936.4142114 407.2956037 940.82687902 411.71646188 945.25 416.1875 C946.03890625 416.98091797 946.8278125 417.77433594 947.640625 418.59179688 C949.10176379 420.06157415 950.56186323 421.53238605 952.02050781 423.00463867 C954.00837645 425.0084436 956.00299668 427.0053021 958 429 C959.66666667 430.66666667 961.33333333 432.33333333 963 434 C964.1446875 435.0828125 964.1446875 435.0828125 965.3125 436.1875 C967 438 967 438 967 440 C967.66 440 968.32 440 969 440 C970.36176922 441.64351457 971.68962066 443.31522656 973 445 C975.72774449 447.87519014 978.54937605 450.45110085 981.625 452.9375 C984.79480755 455.59958946 986.30878218 458.19475991 988 462 C988.98165594 463.01801357 989.97591432 464.0246803 991 465 C991 465.66 991 466.32 991 467 C991.8971875 467.3403125 991.8971875 467.3403125 992.8125 467.6875 C995.59832728 469.35899637 996.37537232 471.2056404 998 474 C998.825 474.825 999.65 475.65 1000.5 476.5 C1003 479 1003 479 1004.375 481.375 C1005.83388768 483.73166472 1007.08021561 485.12399192 1009.0625 487 C1012.963357 490.76006174 1016.14479572 494.94974676 1019.35961914 499.29296875 C1022.00181403 502.83081389 1024.8777093 505.88813431 1028 509 C1032 514.71919771 1032 514.71919771 1032 518 C1032.66 518 1033.32 518 1034 518 C1034.12375 518.928125 1034.12375 518.928125 1034.25 519.875 C1034.62125 520.926875 1034.62125 520.926875 1035 522 C1035.60070313 522.25910156 1036.20140625 522.51820313 1036.8203125 522.78515625 C1039.83243265 524.4639544 1040.88142282 526.61685309 1042.625 529.5625 C1044.68581309 533.43931447 1044.68581309 533.43931447 1048 536 C1048 536.66 1048 537.32 1048 538 C1048.66 538 1049.32 538 1050 538 C1050.495 539.485 1050.495 539.485 1051 541 C1052.6454378 542.68762851 1054.31288577 544.3540349 1056 546 C1058 549 1058 549 1058 552 C1058.66 552 1059.32 552 1060 552 C1060 552.99 1060 553.98 1060 555 C1060.99 555.33 1061.98 555.66 1063 556 C1064.28125 557.7421875 1064.28125 557.7421875 1065.5 559.875 C1066.76389089 562.07060532 1067.84795631 563.85010787 1069.65625 565.6328125 C1071 567 1071 567 1071 569 C1071.66 569 1072.32 569 1073 569 C1073.82177734 570.51980469 1073.82177734 570.51980469 1074.66015625 572.0703125 C1076.9008989 575.99185858 1079.57674365 579.39297817 1082.4375 582.875 C1086.1045269 587.4272966 1089.38199884 591.87635705 1092 597.1328125 C1092.98942733 599.09825397 1092.98942733 599.09825397 1094.5625 601.0546875 C1096 603 1096 603 1097 606 C1097.66 606.33 1098.32 606.66 1099 607 C1099.98884239 608.89068985 1100.91732277 610.81320494 1101.8125 612.75 C1104.05759977 617.37676279 1106.19947573 620.49951712 1110 624 C1114 629.91530945 1114 629.91530945 1114 633 C1114.66 633 1115.32 633 1116 633 C1117.25664978 635.90600261 1118 637.79604584 1118 641 C1118.66 641 1119.32 641 1120 641 C1123.24014925 645.1540375 1125.75790044 649.22335312 1128 654 C1129.07432861 656.08984361 1130.15057992 658.17864883 1131.23046875 660.265625 C1132 662 1132 662 1132 664 C1132.66 664 1133.32 664 1134 664 C1134.495 666.97 1134.495 666.97 1135 670 C1135.99 670.33 1136.98 670.66 1138 671 C1139.71875 673.6953125 1139.71875 673.6953125 1141.5 677.125 C1141.9645459 678.01143188 1141.9645459 678.01143188 1142.43847656 678.91577148 C1143.9955774 681.91810297 1145.46335519 684.93485809 1146.75 688.0625 C1147.81776039 690.91776034 1147.81776039 690.91776034 1149.3515625 692.7421875 C1151.48795487 695.66833629 1153.03648347 698.82023991 1154.625 702.0625 C1155.14441162 703.1153418 1155.14441162 703.1153418 1155.67431641 704.18945312 C1156.78858974 706.45688719 1157.89470979 708.7281753 1159 711 C1159.35900391 711.73202637 1159.71800781 712.46405273 1160.08789062 713.21826172 C1171.03585009 735.59253744 1181.84434902 758.9259589 1186.50830078 783.53564453 C1187.31302146 787.56883744 1188.37371821 791.52868409 1189.4375 795.5 C1189.65704346 796.33313721 1189.87658691 797.16627441 1190.1027832 798.0246582 C1191.19120963 802.12139103 1192.3487323 806.16436645 1193.6875 810.1875 C1195.28441571 815.25793294 1195.79789372 820.46526686 1196.35424805 825.7331543 C1196.44501318 829.16038806 1196.44501318 829.16038806 1198 832 C1198.50937386 835.31093011 1198.71787246 838.6629602 1199 842 C1199.12375 843.32451172 1199.12375 843.32451172 1199.25 844.67578125 C1201.46658548 870.27041673 1201.23918315 896.02057588 1201.25 921.6875 C1201.25088371 922.64826824 1201.25176743 923.60903648 1201.25267792 924.59891891 C1201.27399317 950.78348558 1200.97053872 976.91008631 1199.625 1003.0625 C1199.56187622 1004.29350433 1199.49875244 1005.52450867 1199.43371582 1006.79281616 C1197.43522347 1044.61598017 1197.43522347 1044.61598017 1195 1059 C1194.79491422 1061.30767847 1194.61827434 1063.61799998 1194.46484375 1065.9296875 C1194.33432617 1067.86328125 1194.33432617 1067.86328125 1194.20117188 1069.8359375 C1194.1132169 1071.18228746 1194.02532707 1072.52864169 1193.9375 1073.875 C1193.84597416 1075.2448098 1193.75417986 1076.6146017 1193.66210938 1077.984375 C1193.43876738 1081.32275015 1193.21815663 1084.66128265 1193 1088 C1192.34 1088 1191.68 1088 1191 1088 C1191.03262939 1089.2674707 1191.03262939 1089.2674707 1191.06591797 1090.56054688 C1191.20856341 1100.73863861 1190.44495262 1110.70479536 1189.40087891 1120.82470703 C1189.12544282 1123.4957058 1188.86062119 1126.16759111 1188.59765625 1128.83984375 C1187.59283142 1138.92300606 1186.4215702 1148.96673738 1185 1159 C1184.34 1159 1183.68 1159 1183 1159 C1182.505 1168.9 1182.505 1168.9 1182 1179 C1181.34 1179 1180.68 1179 1180 1179 C1179.90912109 1180.57587891 1179.90912109 1180.57587891 1179.81640625 1182.18359375 C1179.73189113 1183.60156968 1179.64724884 1185.01953802 1179.5625 1186.4375 C1179.52318359 1187.12521484 1179.48386719 1187.81292969 1179.44335938 1188.52148438 C1179.22512646 1192.13072107 1178.92872122 1195.70423622 1178.484375 1199.29296875 C1177.96730155 1203.75015146 1177.8544001 1208.17611472 1177.76049805 1212.65966797 C1177.50296607 1224.00313315 1176.46628089 1234.97002237 1174.65527344 1246.16503906 C1172.85374943 1257.42859256 1171.63994493 1268.73306728 1170.4831543 1280.07763672 C1169.64350693 1288.14640038 1168.52072969 1296.08639597 1167.04748535 1304.06452942 C1166.02856487 1309.63882321 1165.37160562 1315.16688634 1164.9375 1320.8125 C1164.37425681 1327.39163444 1163.61984604 1333.83584084 1162.4296875 1340.3359375 C1161.97992482 1343.12446614 1161.75236807 1345.86985787 1161.5625 1348.6875 C1161.21977458 1353.30838415 1160.54303877 1357.75882589 1159.6875 1362.3125 C1158.12324729 1370.66600298 1157.01173983 1379.07216615 1155.9375 1387.5 C1155.85060913 1388.18037323 1155.76371826 1388.86074646 1155.67419434 1389.56173706 C1154.70699581 1397.16016893 1153.78732175 1404.76255115 1152.9375 1412.375 C1152.24168817 1418.43588728 1151.28297443 1424.4038348 1150.17773438 1430.39990234 C1148.98624237 1436.89772492 1148.0130282 1443.42115116 1147.09008789 1449.9621582 C1146.53423464 1453.81052472 1145.88976877 1457.57197296 1144.97265625 1461.3515625 C1143.71547365 1466.80908092 1143.3806704 1472.29888365 1143 1477.875 C1142.85970655 1479.91445115 1142.71389833 1481.95353064 1142.5625 1483.9921875 C1142.47162109 1485.32805908 1142.47162109 1485.32805908 1142.37890625 1486.69091797 C1141.82885068 1491.49468933 1140.86493987 1496.24283073 1140 1501 C-112.68 1501 -1365.36 1501 -2656 1501 C-2653.78405524 1495.4601381 -2653.78405524 1495.4601381 -2650.6875 1493.1875 C-2647.36723167 1490.50390168 -2645.43860305 1487.8031282 -2643.30859375 1484.13671875 C-2641.37357827 1480.97715616 -2639.07185825 1478.14281456 -2636.7734375 1475.2421875 C-2635.04645031 1473.05872793 -2633.35909169 1470.85107088 -2631.6875 1468.625 C-2631.21699219 1467.99851562 -2630.74648437 1467.37203125 -2630.26171875 1466.7265625 C-2629.13227907 1465.18101347 -2628.06183525 1463.59275287 -2627 1462 C-2626.34 1462 -2625.68 1462 -2625 1462 C-2624.731875 1461.278125 -2624.46375 1460.55625 -2624.1875 1459.8125 C-2623.00098638 1457.00233617 -2621.72514361 1454.51583443 -2620 1452 C-2619.34 1452 -2618.68 1452 -2618 1452 C-2617.79375 1451.175 -2617.5875 1450.35 -2617.375 1449.5 C-2615.86375495 1445.65319441 -2613.8876476 1442.94871922 -2611.33984375 1439.734375 C-2609.93551917 1438.03178505 -2609.93551917 1438.03178505 -2609 1436 C-2608.34 1436 -2607.68 1436 -2607 1436 C-2606.95875 1435.34 -2606.9175 1434.68 -2606.875 1434 C-2605.23318692 1428.37092659 -2600.97933189 1424.11668687 -2597.1875 1419.75 C-2595.24611945 1417.30940731 -2594.3502976 1416.03591249 -2594 1413 C-2593.34 1413 -2592.68 1413 -2592 1413 C-2591.93683594 1412.16726563 -2591.87367188 1411.33453125 -2591.80859375 1410.4765625 C-2590.77166852 1406.01828495 -2588.68441892 1403.06701486 -2586.0625 1399.375 C-2585.15557025 1398.07168936 -2584.25055961 1396.76704076 -2583.34765625 1395.4609375 C-2582.94554932 1394.89165527 -2582.54344238 1394.32237305 -2582.12915039 1393.73583984 C-2580.92571949 1391.88580878 -2579.95173913 1389.98952963 -2579 1388 C-2578.34 1388 -2577.68 1388 -2577 1388 C-2576.72027344 1387.42894531 -2576.44054688 1386.85789062 -2576.15234375 1386.26953125 C-2575.01757251 1384.03460892 -2573.80386552 1381.86472364 -2572.5625 1379.6875 C-2570.79281706 1376.52771829 -2569.31288789 1373.38722298 -2567.953125 1370.02734375 C-2566.10033948 1366.08637783 -2563.76612728 1362.40022848 -2561.5234375 1358.671875 C-2559.90104677 1356.02845568 -2559.90104677 1356.02845568 -2559 1353 C-2558.37867187 1352.39285156 -2557.75734375 1351.78570313 -2557.1171875 1351.16015625 C-2554.74040709 1348.7351386 -2553.56954886 1346.50206553 -2552.125 1343.4375 C-2550.09917384 1339.25795462 -2548.05519841 1335.10163589 -2545.875 1331 C-2545.41867187 1330.13375 -2544.96234375 1329.2675 -2544.4921875 1328.375 C-2543 1326 -2543 1326 -2540.984375 1324.0703125 C-2538.55309592 1321.53374181 -2537.62116866 1319.1471977 -2536.375 1315.875 C-2534.19444444 1310.19444444 -2534.19444444 1310.19444444 -2532 1308 C-2531.19567752 1306.01656604 -2530.54418535 1304.0065095 -2529.87890625 1301.97265625 C-2529 1300 -2529 1300 -2527.52734375 1298.55859375 C-2525.57291318 1296.56417483 -2525.00452129 1294.60279307 -2524 1292 C-2522.75462228 1289.79790828 -2521.48108936 1287.61162055 -2520.1875 1285.4375 C-2516.52172289 1279.17930402 -2513.58485568 1272.78524615 -2511 1266 C-2510.01 1266 -2509.02 1266 -2508 1266 C-2507.896875 1264.989375 -2507.79375 1263.97875 -2507.6875 1262.9375 C-2506.82470464 1257.99603568 -2505.63660405 1253.63660405 -2502 1250 C-2501.71125 1248.948125 -2501.4225 1247.89625 -2501.125 1246.8125 C-2499.89912863 1242.65815814 -2498.24990787 1239.67484952 -2496 1236 C-2495.34 1236 -2494.68 1236 -2494 1236 C-2493.87625 1235.21625 -2493.7525 1234.4325 -2493.625 1233.625 C-2493 1231 -2493 1231 -2491 1229 C-2490.27217605 1227.04810851 -2489.54741192 1225.09494147 -2488.84765625 1223.1328125 C-2487.83705565 1220.59001098 -2486.45527862 1218.33513497 -2485.0390625 1216 C-2483.27968059 1212.61352054 -2482.19267495 1208.9814993 -2481.02734375 1205.35546875 C-2480 1203 -2480 1203 -2477 1201 C-2476.59632231 1199.11617077 -2476.19314204 1197.23223302 -2475.79296875 1195.34765625 C-2474.5029606 1191.52846955 -2472.04908926 1188.59600406 -2469.671875 1185.37890625 C-2467.58854342 1182.41453959 -2466.3105126 1179.36988954 -2465 1176 C-2463.70601162 1173.31211973 -2462.35284789 1170.65904586 -2461 1168 C-2460.34 1168 -2459.68 1168 -2459 1168 C-2456.70274013 1163.72121739 -2455.11198645 1159.13839787 -2453.47460938 1154.57617188 C-2451.73943602 1150.03557388 -2449.63085595 1147.34785391 -2446 1144 C-2445.566875 1142.8553125 -2445.566875 1142.8553125 -2445.125 1141.6875 C-2443.63857452 1138.1365947 -2441.29175727 1135.83201611 -2438.65625 1133.0625 C-2436.83244698 1130.79134908 -2436.05779615 1128.70189015 -2435 1126 C-2433.84490752 1124.23482347 -2432.631484 1122.50700133 -2431.375 1120.8125 C-2430.6634375 1119.85214844 -2429.951875 1118.89179688 -2429.21875 1117.90234375 C-2427.14532142 1115.19009474 -2425.02570677 1112.52615969 -2422.875 1109.875 C-2420.42763297 1106.8573727 -2418.16758588 1103.82741282 -2416.0625 1100.5625 C-2410.87846268 1092.610833 -2404.71750758 1085.51941736 -2397.921875 1078.9140625 C-2393.90723513 1074.9157423 -2390.14398074 1070.71597111 -2387 1066 C-2386.34 1066 -2385.68 1066 -2385 1066 C-2384.73058594 1065.41347656 -2384.46117188 1064.82695312 -2384.18359375 1064.22265625 C-2383.00154813 1062.00290721 -2381.71899616 1060.32160632 -2380.0625 1058.4375 C-2379.55847656 1057.85871094 -2379.05445312 1057.27992187 -2378.53515625 1056.68359375 C-2375.44868421 1053.29868421 -2375.44868421 1053.29868421 -2374 1052 C-2373.34 1052 -2372.68 1052 -2372 1052 C-2371.77054688 1051.45214844 -2371.54109375 1050.90429688 -2371.3046875 1050.33984375 C-2369.62395795 1047.32560122 -2367.48046682 1045.08222044 -2365.125 1042.5625 C-2359.13051818 1036.56627551 -2359.13051818 1036.56627551 -2355.0625 1029.3125 C-2353.64328336 1026.22361673 -2352.07244262 1026.1817087 -2349 1025 C-2348.63584228 1023.67475359 -2348.30652357 1022.33975079 -2348 1021 C-2346.95605469 1019.2800293 -2346.95605469 1019.2800293 -2345.671875 1017.57421875 C-2345.20136719 1016.94193359 -2344.73085937 1016.30964844 -2344.24609375 1015.65820312 C-2343.75238281 1015.00787109 -2343.25867187 1014.35753906 -2342.75 1013.6875 C-2341.30537368 1011.75808668 -2339.86200605 1009.8277396 -2338.41918945 1007.89697266 C-2337.48499466 1006.64827258 -2336.54613889 1005.40304381 -2335.60229492 1004.16162109 C-2332.98797517 1000.6440676 -2331.17557989 997.46423827 -2329.8125 993.25 C-2328.76063291 990.04516239 -2327.89078616 987.83617924 -2326 985 C-2325.34 985 -2324.68 985 -2324 985 C-2322.48335538 982.47225897 -2321.96782641 980.72116218 -2321.625 977.75 C-2320.87997478 973.27984867 -2319.14308078 969.9208637 -2317 966 C-2316.35240388 964.76654891 -2315.70674042 963.53208211 -2315.0625 962.296875 C-2314.35467913 960.9476477 -2313.64634057 959.59869186 -2312.9375 958.25 C-2312.59710693 957.59966797 -2312.25671387 956.94933594 -2311.90600586 956.27929688 C-2310.5477052 953.72327306 -2309.21491693 951.27793769 -2307.44140625 948.984375 C-2305.82380192 946.7574292 -2304.87529379 944.43208011 -2303.83496094 941.89550781 C-2302.36864683 938.56671754 -2300.49773532 935.48778979 -2298.625 932.375 C-2298.25117188 931.73304688 -2297.87734375 931.09109375 -2297.4921875 930.4296875 C-2295.63478641 927.32553773 -2293.9259769 924.92641105 -2291.3359375 922.3515625 C-2288.89249672 919.89177763 -2288.19455727 918.19046338 -2287 915 C-2285.72112938 913.27086034 -2284.38407732 911.58363608 -2283 909.9375 C-2280.56411359 907.03145169 -2278.65287527 904.39836856 -2277 901 C-2274.5 898.25 -2274.5 898.25 -2272 896 C-2271.34 896 -2270.68 896 -2270 896 C-2269.75507813 895.42894531 -2269.51015625 894.85789062 -2269.2578125 894.26953125 C-2265.56250796 887.60191653 -2258.47482237 882.40447832 -2252.7265625 877.5078125 C-2250.9695883 876.02203902 -2250.9695883 876.02203902 -2249.3984375 874.3046875 C-2248 873 -2248 873 -2246 873 C-2246 872.34 -2246 871.68 -2246 871 C-2243.8828125 869.2734375 -2243.8828125 869.2734375 -2241.125 867.375 C-2240.22007812 866.74335938 -2239.31515625 866.11171875 -2238.3828125 865.4609375 C-2236 864 -2236 864 -2234 864 C-2234 863.34 -2234 862.68 -2234 862 C-2230.39788393 858.75063352 -2226.36832449 856.35250016 -2222.1875 853.9375 C-2214.55498561 849.44113176 -2207.29213731 844.49824611 -2200.03808594 839.42041016 C-2197.28504596 837.50172465 -2194.51373424 835.61029891 -2191.74267578 833.71777344 C-2181.75872118 826.89101617 -2171.9781027 819.93358955 -2162.66796875 812.19921875 C-2160.22880383 810.18860404 -2157.74800846 808.24897267 -2155.25 806.3125 C-2149.93644357 802.10095125 -2145.05505708 797.44894348 -2140.17675781 792.74731445 C-2139.56413086 792.16296631 -2138.95150391 791.57861816 -2138.3203125 790.9765625 C-2137.50457764 790.18886475 -2137.50457764 790.18886475 -2136.67236328 789.38525391 C-2135 788 -2135 788 -2132.82763672 786.93676758 C-2132.2245166 786.62763428 -2131.62139648 786.31850098 -2131 786 C-2130.6217381 784.67871017 -2130.28885077 783.34367188 -2130 782 C-2128.37993432 780.6161939 -2126.75406396 779.23852916 -2125.09765625 777.8984375 C-2120.88012688 774.08145561 -2117.53595727 769.43765858 -2114 765 C-2110.47258483 760.76863212 -2106.82615363 756.77244323 -2102.875 752.9375 C-2100.48683673 750.55639317 -2098.26117225 748.05329027 -2096.02734375 745.52734375 C-2090.78279671 739.68528311 -2085.26079384 734.14869106 -2079.6875 728.625 C-2078.7022352 727.64477118 -2077.71720819 726.66430328 -2076.73242188 725.68359375 C-2074.93333541 723.89256576 -2073.1326606 722.10319454 -2071.33081055 720.31494141 C-2069.80395155 718.7984779 -2068.2990183 717.25953853 -2066.81958008 715.69677734 C-2065 714 -2065 714 -2063 714 C-2062.67 713.01 -2062.34 712.02 -2062 711 C-2060.43359375 709.421875 -2060.43359375 709.421875 -2058.4375 707.75 C-2057.71046875 707.13382813 -2056.9834375 706.51765625 -2056.234375 705.8828125 C-2055.49703125 705.26148437 -2054.7596875 704.64015625 -2054 704 C-2052.72719008 702.87723677 -2051.45632635 701.75226308 -2050.1875 700.625 C-2047.05881229 697.88204091 -2043.85796275 695.24410906 -2040.625 692.625 C-2036.13496231 688.9760713 -2031.83250444 685.17124405 -2027.55859375 681.2734375 C-2023.92034876 678.0406763 -2020.14220237 674.99186896 -2016.34765625 671.9453125 C-2014.05221456 670.10636656 -2014.05221456 670.10636656 -2012.31640625 668.30859375 C-2010.7239157 666.72555418 -2008.99621629 665.99810815 -2007 665 C-2006.67 664.34 -2006.34 663.68 -2006 663 C-2004.865625 662.54625 -2003.73125 662.0925 -2002.5625 661.625 C-1998.96908971 660.44111512 -1998.96908971 660.44111512 -1998.078125 658.1171875 C-1996.63942042 655.29190532 -1994.81882285 654.23580518 -1992.1875 652.5 C-1989.46618464 650.67149441 -1986.85690125 648.88352427 -1984.3125 646.8125 C-1982.37198307 645.29155429 -1980.58571589 644.17381417 -1978.4375 643 C-1975.09638579 641.25686677 -1975.09638579 641.25686677 -1973.19921875 639.17578125 C-1970.49081488 636.49624137 -1967.4871156 634.36260736 -1964.375 632.1875 C-1963.75979492 631.7538916 -1963.14458984 631.3202832 -1962.51074219 630.87353516 C-1961.26635795 629.9970305 -1960.02092634 629.12201079 -1958.77441406 628.24853516 C-1957.15215205 627.1070591 -1955.54034718 625.95075847 -1953.9296875 624.79296875 C-1952.60324219 623.84357422 -1952.60324219 623.84357422 -1951.25 622.875 C-1950.08210938 622.03582031 -1950.08210938 622.03582031 -1948.890625 621.1796875 C-1947 620 -1947 620 -1945 620 C-1945 619.34 -1945 618.68 -1945 618 C-1944.34 618 -1943.68 618 -1943 618 C-1943 617.34 -1943 616.68 -1943 616 C-1941.88625 615.484375 -1940.7725 614.96875 -1939.625 614.4375 C-1933.39030184 611.32568795 -1927.72045151 607.26704292 -1922.375 602.8125 C-1919.74043324 600.80190957 -1917.07320266 599.48467217 -1914.0625 598.125 C-1911.4509162 596.70049974 -1909.31370252 594.86701486 -1907 593 C-1905.20265025 591.83054536 -1903.38970257 590.68473931 -1901.5625 589.5625 C-1898.40754027 587.5890621 -1895.42226709 585.64328254 -1892.625 583.1875 C-1890.09074317 581.07561931 -1888.06500833 580.10680856 -1885 579 C-1884.34 578.34 -1883.68 577.68 -1883 577 C-1881.68 577 -1880.36 577 -1879 577 C-1878.773125 576.42765625 -1878.54625 575.8553125 -1878.3125 575.265625 C-1876.63564638 572.37105625 -1874.6231523 570.82169415 -1872 568.75 C-1871.00226562 567.9559375 -1870.00453125 567.161875 -1868.9765625 566.34375 C-1867.99429688 565.5703125 -1867.01203125 564.796875 -1866 564 C-1864.45819789 562.75016706 -1862.91652658 561.50017276 -1861.375 560.25 C-1851.47423964 552.35786035 -1841.46529302 544.56877218 -1831.0078125 537.42578125 C-1829.13730207 536.0975005 -1827.41550098 534.69407372 -1825.6875 533.1875 C-1823.09738225 531.07926463 -1821.07276955 530.18183444 -1818 529 C-1816.31295807 527.69254251 -1814.64639965 526.35827971 -1813 525 C-1812.236875 524.54625 -1811.47375 524.0925 -1810.6875 523.625 C-1808.34623272 522.20935002 -1806.23855876 520.71316054 -1804.0625 519.0625 C-1794.83076585 512.07350352 -1794.83076585 512.07350352 -1790 511 C-1789.67 510.34 -1789.34 509.68 -1789 509 C-1787.35762086 507.96059222 -1785.68609385 506.96688433 -1784 506 C-1782.24724412 504.87929851 -1780.49733909 503.75412847 -1778.75 502.625 C-1773.92879253 499.54873357 -1769.02503734 496.72529052 -1764 494 C-1762.56230424 493.18784645 -1761.12480772 492.37534009 -1759.6875 491.5625 C-1756.12374002 489.56804485 -1752.49001224 487.77519418 -1748.8125 486 C-1745.50316013 484.3724558 -1742.58747403 482.88000435 -1739.875 480.375 C-1736.68623072 477.74079929 -1733.88833947 476.6552615 -1730.05078125 475.234375 C-1725.49813203 473.39232999 -1721.16582604 471.14324458 -1716.79736328 468.9050293 C-1713.645006 467.29673969 -1710.50288087 465.76180697 -1707.234375 464.40234375 C-1704.66931331 463.29019744 -1702.68005092 462.23531368 -1700.4375 460.625 C-1695.62825337 457.47903037 -1690.30090819 455.87845049 -1684.87890625 454.11328125 C-1681.88247269 453.32571727 -1681.88247269 453.32571727 -1681 451 C-1679.22583008 450.30664062 -1679.22583008 450.30664062 -1676.95703125 449.65625 C-1672.15570263 448.14533576 -1668.04522262 445.9829834 -1663.6875 443.5 C-1657.73553186 440.21158355 -1652.27089996 437.84876199 -1645.515625 436.6328125 C-1642.60265271 435.90004618 -1640.54014596 434.579344 -1638 433 C-1636.7625 432.649375 -1635.525 432.29875 -1634.25 431.9375 C-1632.64125 431.4734375 -1632.64125 431.4734375 -1631 431 C-1630.67 430.34 -1630.34 429.68 -1630 429 C-1628.25 428.25390625 -1628.25 428.25390625 -1626 427.5625 C-1625.17628906 427.30210937 -1624.35257813 427.04171875 -1623.50390625 426.7734375 C-1622.67761719 426.51820313 -1621.85132813 426.26296875 -1621 426 C-1616.70628446 424.63194476 -1612.45799334 423.19148823 -1608.26171875 421.546875 C-1600.5611133 418.54191781 -1593.26680264 416.01583592 -1585 415 C-1585 414.34 -1585 413.68 -1585 413 C-1574.71422054 409.03949426 -1574.71422054 409.03949426 -1569.375 408 C-1566.27513469 407.37674666 -1563.66778766 406.48165601 -1560.8125 405.125 C-1553.78023294 401.82008297 -1545.80126003 399 -1538 399 C-1538 398.34 -1538 397.68 -1538 397 C-1526.64976537 393.43076275 -1515.34480822 389.93079071 -1503.72509766 387.34863281 C-1498.70420581 386.21664992 -1493.92756975 384.69503118 -1489.07421875 383 C-1483.50012154 381.1868248 -1477.79059917 379.87997464 -1472.09521484 378.50878906 C-1469.97331064 377.99351892 -1467.85541891 377.46418594 -1465.73828125 376.9296875 C-1465.03864258 376.75308594 -1464.33900391 376.57648437 -1463.61816406 376.39453125 C-1462.93979492 376.22308594 -1462.26142578 376.05164062 -1461.5625 375.875 C-1457.58979802 374.87250378 -1453.61677994 373.90878207 -1449.61328125 373.0390625 C-1444.90889671 372.0050106 -1440.27255529 370.76159474 -1435.625 369.5 C-1429.67974075 367.9079207 -1423.79077174 366.47607213 -1417.70922852 365.49560547 C-1414.92035855 364.985431 -1412.21257402 364.32209315 -1409.46875 363.609375 C-1403.15861163 362.01239747 -1396.8189144 360.65365075 -1390.4375 359.375 C-1389.39142578 359.1584375 -1388.34535156 358.941875 -1387.26757812 358.71875 C-1382.4174505 357.74330534 -1377.65826105 356.90971692 -1372.72265625 356.5390625 C-1367.54796491 356.13808193 -1362.54850368 355.20068575 -1357.45898438 354.20172119 C-1349.04363141 352.5773224 -1340.55673059 351.49617979 -1332.0625 350.375 C-1328.84438973 349.95009184 -1325.62707533 349.51976133 -1322.41015625 349.0859375 C-1321.67805435 348.99114105 -1320.94595245 348.8963446 -1320.19166565 348.79867554 C-1316.80429735 348.59091264 -1316.80429735 348.59091264 -1314 347 C-1311.6640212 346.6106702 -1309.34947556 346.28369471 -1307 346 C-1306.28303955 345.91097412 -1305.5660791 345.82194824 -1304.82739258 345.73022461 C-1299.78273344 345.13399274 -1294.76036421 344.79194403 -1289.6875 344.5625 C-1282.58475176 344.23282962 -1275.68715056 343.27220344 -1268.68017578 342.08618164 C-1264.4705293 341.37616793 -1260.32660845 340.79449958 -1256.0625 340.5 C-1252.53757932 340.23761327 -1249.38554691 339.6188665 -1245.98828125 338.65625 C-1236.83857136 336.30948838 -1227.47299048 335.25445687 -1218.125 334 C-1207.32658862 332.54531136 -1196.63980097 331.06660584 -1186.00830078 328.65185547 C-1181.65898925 327.70942228 -1177.28507244 327.135225 -1172.875 326.5625 C-1166.40248732 325.65550056 -1160.53260415 324.39554955 -1154.390625 322.10546875 C-1148.72967526 320.25979043 -1142.90718286 319.0898739 -1137.09033203 317.83837891 C-1131.66411934 316.65817521 -1126.38473037 315.2754404 -1121.09814453 313.57055664 C-1119 313 -1119 313 -1116 313 C-1116 312.34 -1116 311.68 -1116 311 C-1114.94039062 310.66226563 -1113.88078125 310.32453125 -1112.7890625 309.9765625 C-1111.40093836 309.52636008 -1110.01292313 309.07582175 -1108.625 308.625 C-1107.92632813 308.40328125 -1107.22765625 308.1815625 -1106.5078125 307.953125 C-1102.37952197 306.62845587 -1102.37952197 306.62845587 -1099 304 C-1096.31568032 303.12796687 -1093.66195769 302.34848513 -1090.9375 301.625 C-1089.73226685 301.299552 -1089.73226685 301.299552 -1088.50268555 300.9675293 C-1086.00470135 300.2999498 -1083.50342495 299.64685813 -1081 299 C-1080.25073242 298.80583496 -1079.50146484 298.61166992 -1078.72949219 298.41162109 C-1070.0812173 296.20003935 -1061.56191788 294.56388627 -1052.6875 293.4921875 C-1046.39289888 292.65201828 -1040.20487589 291.33817602 -1034 290 C-1032.83984375 289.75121094 -1031.6796875 289.50242187 -1030.484375 289.24609375 C-1025.77716888 288.20065611 -1021.16725662 287.127077 -1016.625 285.5 C-1011.46637598 283.68264989 -1006.15072011 282.78003511 -1000.7890625 281.75390625 C-995.47337427 280.6962487 -990.24444768 279.36109566 -985 278 C-983.47951987 277.62357045 -981.9587288 277.24839252 -980.4375 276.875 C-977.05008921 276.05693803 -977.05008921 276.05693803 -974 275 C-972.3515278 274.83839198 -970.69972314 274.70959377 -969.046875 274.6015625 C-962.94996753 274.08450322 -957.18983372 272.80100056 -951.25 271.375 C-937.5645085 268.19397353 -923.78329851 265.73240352 -909.93847656 263.36083984 C-909.11799835 263.21832794 -908.29752014 263.07581604 -907.45217896 262.9289856 C-905.90994235 262.66133841 -904.36690608 262.39824254 -902.82296753 262.14059448 C-898.97723624 261.47119679 -895.59017052 260.50899721 -892 259 C-889.24065899 258.5828269 -886.52161153 258.22413249 -883.75 257.9375 C-878.98973537 257.83234347 -878.98973537 257.83234347 -875 256 C-872.92874306 255.59387119 -870.84670264 255.24252572 -868.76171875 254.9140625 C-866.81749023 254.60082031 -866.81749023 254.60082031 -864.83398438 254.28125 C-862.77881331 253.9551017 -860.72338926 253.63063956 -858.66772461 253.30761719 C-851.94122731 252.24558193 -845.28724344 251.14881468 -838.6953125 249.40234375 C-833.19950769 247.96088192 -827.84453833 247.33588298 -822.1875 246.9375 C-816.16386352 246.49631995 -810.8091337 245.76410228 -805 244 C-802.71398938 243.64850634 -800.4216581 243.33591168 -798.125 243.0625 C-794.05071893 242.51725901 -790.29678025 241.91958737 -786.4375 240.5 C-781.89913967 238.83148517 -777.37489845 238.20005897 -772.59765625 237.53515625 C-767.40140062 236.76220617 -762.26720792 235.71680991 -757.1171875 234.68359375 C-753.98549283 234.10711264 -750.88513012 233.80484784 -747.7109375 233.55859375 C-741.9247292 233.07118212 -736.40073544 231.92879374 -730.75 230.625 C-728.72806121 230.17229798 -726.70592535 229.72047523 -724.68359375 229.26953125 C-723.71147949 229.05119629 -722.73936523 228.83286133 -721.73779297 228.60791016 C-715.84602227 227.29967857 -709.92947631 226.12467858 -704 225 C-703.03964844 224.81695313 -702.07929688 224.63390625 -701.08984375 224.4453125 C-687.94650229 222.09505887 -674.58572235 220.92762769 -661.25512695 220.34155273 C-657.50249924 220.21486661 -657.50249924 220.21486661 -654 219 C-650.6593365 218.68351609 -647.31782389 218.48871475 -643.96875 218.28125 C-641.0735199 218.18711938 -641.0735199 218.18711938 -639 217 C-637.04744836 216.65320352 -635.08756234 216.34723626 -633.125 216.0625 C-631.95710938 215.8871875 -630.78921875 215.711875 -629.5859375 215.53125 C-627.32064694 215.1956514 -625.05505843 214.86205233 -622.7890625 214.53125 C-621.78617188 214.3765625 -620.78328125 214.221875 -619.75 214.0625 C-618.85796875 213.92972656 -617.9659375 213.79695313 -617.046875 213.66015625 C-614.49984767 213.10830033 -612.1950325 212.42207175 -609.73828125 211.578125 C-605.03241198 209.96192328 -600.27924878 208.81520087 -595.4375 207.6875 C-585.55387535 205.30605927 -576.32969326 201.97233118 -566.91210938 198.15332031 C-566.21408203 197.87842773 -565.51605469 197.60353516 -564.796875 197.3203125 C-563.85086426 196.94156982 -563.85086426 196.94156982 -562.88574219 196.55517578 C-561 196 -561 196 -557 196 C-556.67 195.01 -556.34 194.02 -556 193 C-553.51928008 192.19480213 -551.16153508 191.55634041 -548.625 191 C-542.68152345 189.70144328 -542.68152345 189.70144328 -538 186 C-535.72265625 185.296875 -535.72265625 185.296875 -533.0625 184.75 C-528.41626878 183.60687962 -524.8732269 181.9000713 -520.8125 179.375 C-515.9994551 176.39430074 -512.64176503 175.10849548 -507 175 C-507 174.34 -507 173.68 -507 173 C-501.39925328 170.14891565 -495.80096876 167.42585966 -490 165 C-488.43569476 164.31661751 -486.87327091 163.62891643 -485.3125 162.9375 C-484.58675781 162.61652344 -483.86101563 162.29554688 -483.11328125 161.96484375 C-482.06720703 161.48724609 -482.06720703 161.48724609 -481 161 C-480.27167969 160.67128906 -479.54335937 160.34257813 -478.79296875 160.00390625 C-476.82798643 159.12425447 -476.82798643 159.12425447 -476 157 C-474.0556658 155.89467894 -472.06909902 154.86279072 -470.0625 153.875 C-468.98097656 153.33617187 -467.89945313 152.79734375 -466.78515625 152.2421875 C-464 151 -464 151 -462 151 C-462 150.34 -462 149.68 -462 149 C-458.43433645 146.17718302 -454.98929324 143.92417517 -450.875 142 C-447.16658427 140.22733474 -444.88245144 137.95275513 -442 135 C-434.78976405 129.58130944 -426.76656056 125.33831273 -418.6875 121.375 C-415.91217505 120.03441436 -415.91217505 120.03441436 -413.25 118.0625 C-409.73101684 115.82929915 -406.28679662 114.49258947 -402.3671875 113.125 C-399.89029249 112.11221574 -399.89029249 112.11221574 -398.05078125 110.03125 C-395.62584988 107.62941321 -393.4850246 106.72753893 -390.3125 105.5 C-389.24128906 105.07332031 -388.17007813 104.64664062 -387.06640625 104.20703125 C-386.05449219 103.80871094 -385.04257813 103.41039062 -384 103 C-377.30440916 100.21115109 -370.85387871 96.95742532 -364.40722656 93.64135742 C-359.21574384 91 -359.21574384 91 -357 91 C-357 90.34 -357 89.68 -357 89 C-355.5437455 88.32880451 -354.08492133 87.66318193 -352.625 87 C-351.40683594 86.443125 -351.40683594 86.443125 -350.1640625 85.875 C-348 85 -348 85 -346 85 C-346 84.34 -346 83.68 -346 83 C-321.91063016 70.53784846 -321.91063016 70.53784846 -311 69 C-311 68.34 -311 67.68 -311 67 C-307.7 66.34 -304.4 65.68 -301 65 C-301 64.34 -301 63.68 -301 63 C-300.13217896 62.72119995 -300.13217896 62.72119995 -299.24682617 62.43676758 C-284.81904225 57.86702483 -284.81904225 57.86702483 -270.9609375 51.84765625 C-269 51 -269 51 -266 51 C-266 50.34 -266 49.68 -266 49 C-265.443125 48.81824219 -264.88625 48.63648438 -264.3125 48.44921875 C-255.98938294 45.70765147 -247.91015561 42.58212313 -239.83203125 39.18359375 C-238.43017578 38.59771484 -238.43017578 38.59771484 -237 38 C-236.13117187 37.63003906 -235.26234375 37.26007813 -234.3671875 36.87890625 C-232 36 -232 36 -228.3125 35.5 C-224.92867967 35.32444564 -224.92867967 35.32444564 -223 33 C-220.85137655 32.40912855 -218.68025509 31.89815124 -216.5 31.4375 C-212.12295695 30.5836887 -212.12295695 30.5836887 -208 29 C-206.17110611 28.68167986 -204.33667559 28.3948209 -202.5 28.125 C-196.10095158 27.09562126 -189.75218143 25.74014211 -183.84375 23 C-178.81101101 21.23024563 -173.4887763 20.83333258 -168.21679688 20.14453125 C-167.34990234 20.02464844 -166.48300781 19.90476562 -165.58984375 19.78125 C-164.41216431 19.6275293 -164.41216431 19.6275293 -163.21069336 19.47070312 C-160.87382865 18.97313546 -159.11579124 18.0859717 -157 17 C-153.92362408 16.636616 -150.87066248 16.4966953 -147.77734375 16.34375 C-144.7917124 16.18491182 -144.7917124 16.18491182 -142 14 C-136.1937695 12.27963541 -130.33665928 11.38056596 -124.3515625 10.5 C-121.2675985 10.03992145 -118.1975759 9.53004005 -115.125 9 C-104.2591603 7.18429833 -93.37251258 5.89137556 -82.40625 4.89501953 C-77.43550836 4.41966043 -72.52620916 3.79005314 -67.59765625 2.984375 C-45.04347347 -0.60108859 -22.78274278 -0.40588688 0 0 Z " fill="#DCC7B7" transform="translate(2881,1832)"/>
<path d="M0 0 C0.33 0.66 0.66 1.32 1 2 C2.87558594 1.75636719 2.87558594 1.75636719 4.7890625 1.5078125 C13.29222665 0.66316685 21.83967006 0.85015427 30.375 0.875 C31.27863281 0.87621857 32.18226562 0.87743713 33.11328125 0.87869263 C71.78537534 0.93980151 71.78537534 0.93980151 84.3359375 2.50390625 C92.01647578 3.43238953 99.78991432 3.39603683 107.515625 3.60546875 C108.76085938 3.64285156 110.00609375 3.68023438 111.2890625 3.71875 C112.97056396 3.76418945 112.97056396 3.76418945 114.68603516 3.81054688 C118.16991724 4.00971385 121.55172628 4.47330015 125 5 C127.74941602 5.28335818 130.49836082 5.55317558 133.25 5.8125 C153.0708266 7.7472213 172.9032387 9.91168884 192.625 12.6875 C193.48279053 12.80665771 194.34058105 12.92581543 195.22436523 13.04858398 C200.87387338 13.87387338 200.87387338 13.87387338 202 15 C202.825 14.95875 203.65 14.9175 204.5 14.875 C207.64898476 14.98746374 209.42341364 15.39014295 212.3125 16.4375 C216.89470808 18.08958863 221.15222626 18.61525605 226 19 C226 19.66 226 20.32 226 21 C226.66 21 227.32 21 228 21 C228 365.52 228 710.04 228 1065 C-95.07 1065 -418.14 1065 -751 1065 C-751 1057 -751 1057 -750 1054 C-749.83105922 1052.39020797 -749.70492353 1050.77573049 -749.60546875 1049.16015625 C-748.87216991 1038.43153983 -747.83896251 1028.04575302 -745.53637695 1017.53613281 C-743.92472197 1010.05757374 -742.93030826 1002.54614955 -742.03930664 994.95092773 C-741.5427277 990.80144765 -740.99326791 986.7580104 -740.00390625 982.6953125 C-738.56515388 976.56636312 -738.14249747 970.3193806 -737.5625 964.0625 C-736.47388266 952.93542027 -735.0358907 941.98918277 -733 931 C-731.54969609 923.04347163 -730.55307179 915.11553671 -729.75195312 907.07202148 C-729.18047447 901.42529486 -728.38572154 895.84829242 -727.46386719 890.24731445 C-727.01401933 887.09814272 -726.75380859 883.99406749 -726.55078125 880.8203125 C-726.10268615 874.72294138 -725.26033773 868.77555029 -724.25 862.75 C-722.03506246 849.01302793 -720.38093951 835.21965709 -718.75097656 821.40332031 C-718.55034932 819.71026048 -718.34950742 818.01722607 -718.1484375 816.32421875 C-718.0518837 815.50694305 -717.9553299 814.68966736 -717.85585022 813.84762573 C-717.29993883 809.22263371 -716.64156176 804.63163682 -715.87890625 800.03515625 C-714.90498202 793.93018398 -714.67763496 787.92296814 -714.5625 781.75 C-714.203885 768.71554018 -712.77983537 755.90924808 -711 743 C-710.34 743 -709.68 743 -709 743 C-709.01160156 741.72382813 -709.02320312 740.44765625 -709.03515625 739.1328125 C-709.04453417 737.46354313 -709.05363437 735.79427217 -709.0625 734.125 C-709.07087891 733.28324219 -709.07925781 732.44148438 -709.08789062 731.57421875 C-709.09111328 730.76855469 -709.09433594 729.96289062 -709.09765625 729.1328125 C-709.10289307 728.38918457 -709.10812988 727.64555664 -709.11352539 726.87939453 C-709 725 -709 725 -708 723 C-707.34 723 -706.68 723 -706 723 C-705.95101562 722.15501953 -705.90203125 721.31003906 -705.8515625 720.43945312 C-705.11434971 708.53600874 -703.92913568 696.6890512 -702.72949219 684.82470703 C-701.6274119 673.89006684 -700.63610153 662.97275143 -700 652 C-699.34 652 -698.68 652 -698 652 C-698.01160156 651.41476562 -698.02320312 650.82953125 -698.03515625 650.2265625 C-698.17902069 636.53888855 -697.12742112 622.95939975 -695.5 609.37890625 C-690.84005801 569.7006441 -690.69424257 529.31023406 -690.68858719 489.40960312 C-690.68751917 486.61270893 -690.68283345 483.81584028 -690.67745972 481.01895142 C-690.32185431 438.39897148 -690.32185431 438.39897148 -694 396 C-694.33 395.67 -694.66 395.34 -695 395 C-695.21395874 393.29680371 -695.42164912 391.592551 -695.59521484 389.88476562 C-696.32525936 382.71228328 -697.6445937 376.19577597 -699.9296875 369.33203125 C-701.11179174 365.65197681 -702.0802532 361.93932499 -703 358.1875 C-703.16701416 357.51227295 -703.33402832 356.8370459 -703.50610352 356.14135742 C-704.32311165 352.82006749 -705.11774708 349.49507584 -705.89453125 346.1640625 C-712.14183176 319.95198462 -722.38778502 294.78249424 -735 271 C-735.35755371 270.32308105 -735.71510742 269.64616211 -736.08349609 268.94873047 C-737.8221897 265.66233323 -739.57134364 262.38193582 -741.3359375 259.109375 C-742.59592084 256.75503993 -743.8250577 254.39735701 -745 252 C-744.401875 252.226875 -743.80375 252.45375 -743.1875 252.6875 C-742.1046875 252.8421875 -742.1046875 252.8421875 -741 253 C-739.47890069 251.73026102 -739.47890069 251.73026102 -738 250 C-735.25058448 248.24342897 -732.42731361 246.6876256 -729.5625 245.125 C-725.58041472 242.85948102 -721.09081737 240.18163475 -719 236 C-718.195625 235.690625 -717.39125 235.38125 -716.5625 235.0625 C-713.70136041 234.15452711 -713.70136041 234.15452711 -712 231 C-710.125 229.90234375 -710.125 229.90234375 -708 228.9375 C-705.45629163 227.77319231 -704.00643448 227.00643448 -702 225 C-700.68 225 -699.36 225 -698 225 C-697.67 224.01 -697.34 223.02 -697 222 C-695.25 220.5703125 -695.25 220.5703125 -693 219.125 C-692.17757812 218.59648437 -691.35515625 218.06796875 -690.5078125 217.5234375 C-688.32435529 216.19703826 -686.125828 214.95671768 -683.875 213.75 C-678.80766602 211.01041661 -674.08109034 207.7919362 -669.31591797 204.56542969 C-664.73989096 201.46836501 -660.10070344 198.58821626 -655.25 195.9375 C-651.96190991 194.37320591 -651.96190991 194.37320591 -651 192 C-649.00390625 190.9296875 -649.00390625 190.9296875 -646.5625 189.875 C-645.35787109 189.34519531 -645.35787109 189.34519531 -644.12890625 188.8046875 C-642 188 -642 188 -640 188 C-639.67 187.01 -639.34 186.02 -639 185 C-636.68895182 183.94952356 -634.35416349 182.94992562 -632 182 C-631.34 181.34 -630.68 180.68 -630 180 C-628.31238142 179.39688385 -626.59985524 178.86149763 -624.875 178.375 C-623.96492188 178.11460937 -623.05484375 177.85421875 -622.1171875 177.5859375 C-621.06917969 177.29589844 -621.06917969 177.29589844 -620 177 C-620 176.34 -620 175.68 -620 175 C-617.09451118 172.95830515 -615.59857954 172 -612 172 C-612 171.34 -612 170.68 -612 170 C-605.1266071 166.26164994 -598.25636697 162.56302777 -591.21875 159.140625 C-589.67232174 158.34563019 -588.15617352 157.49009983 -586.66796875 156.59082031 C-584.17888667 155.10666412 -581.66598844 153.7397791 -579.09375 152.40625 C-578.18496094 151.93316406 -577.27617187 151.46007813 -576.33984375 150.97265625 C-574.44661458 149.99088542 -572.55338542 149.00911458 -570.66015625 148.02734375 C-569.75136719 147.55425781 -568.84257812 147.08117188 -567.90625 146.59375 C-567.08447266 146.16771484 -566.26269531 145.74167969 -565.41601562 145.30273438 C-562.93619847 144.00813582 -562.93619847 144.00813582 -560.44335938 142.33789062 C-558 141 -558 141 -554 141 C-554 140.34 -554 139.68 -554 139 C-549.545 138.01 -549.545 138.01 -545 137 C-545 136.34 -545 135.68 -545 135 C-543.35 134.67 -541.7 134.34 -540 134 C-540 133.34 -540 132.68 -540 132 C-539.030625 131.5875 -538.06125 131.175 -537.0625 130.75 C-535.707965 130.16752247 -534.3538344 129.58410406 -533 129 C-532.24332031 128.67515625 -531.48664063 128.3503125 -530.70703125 128.015625 C-527.54759248 126.63965502 -524.50081681 125.30819496 -521.5625 123.5 C-518.37387658 121.63348873 -515.06251936 120.37928582 -511.625 119.0390625 C-506.66965557 117.077572 -501.80893701 114.92371252 -497.0625 112.5 C-494.54861031 111.26870709 -492.07874587 110.21749876 -489.4765625 109.19921875 C-484.02800515 107.03518972 -478.67368477 104.68287546 -473.3125 102.3125 C-464.22779545 98.32369336 -455.0676937 94.59164404 -445.80200195 91.04418945 C-441.56289192 89.41730019 -437.37600198 87.74745675 -433.2421875 85.8671875 C-429.72233609 84.27674767 -426.22273994 83.05289615 -422.5 82 C-418.76961942 80.89549792 -415.25291624 79.75286074 -411.75 78.0625 C-406.65643849 75.64925831 -401.27021092 74.23895392 -395.85058594 72.75024414 C-392.48712072 71.81107992 -389.93040861 70.95360574 -387 69 C-385.05791164 68.32621424 -383.0961957 67.70816547 -381.125 67.125 C-379.96226563 66.77695313 -378.79953125 66.42890625 -377.6015625 66.0703125 C-375.81878906 65.54050781 -375.81878906 65.54050781 -374 65 C-371.83255561 64.33586621 -369.66586753 63.66925834 -367.5 63 C-366.48687744 62.68836914 -365.47375488 62.37673828 -364.42993164 62.05566406 C-362.27974115 61.39387862 -360.12993926 60.73082782 -357.98071289 60.06591797 C-350.31539945 57.69751469 -342.63254639 55.39471726 -334.9375 53.125 C-332.58458685 52.42854949 -330.23172275 51.73193322 -327.87890625 51.03515625 C-324.53020639 50.04397103 -321.18132071 49.05345454 -317.83154297 48.06591797 C-315.01183507 47.23431814 -312.19329393 46.39887681 -309.375 45.5625 C-308.53445068 45.31580566 -307.69390137 45.06911133 -306.82788086 44.81494141 C-303.11973499 43.95932194 -303.11973499 43.95932194 -300 42 C-298.15286669 41.64830582 -296.29661899 41.34404368 -294.4375 41.0625 C-290.36910206 40.44576197 -286.44063044 39.61689578 -282.45678711 38.59106445 C-275.59365729 36.93990304 -268.63230987 35.6708607 -261.70898438 34.29882812 C-255.64169659 33.069015 -249.8070133 31.7259477 -243.97485352 29.6496582 C-240.77104189 28.59571547 -237.51188557 28.0961252 -234.1875 27.5625 C-232.71058634 27.31720927 -231.23403746 27.06971456 -229.7578125 26.8203125 C-228.98856445 26.69043945 -228.21931641 26.56056641 -227.42675781 26.42675781 C-223.12426106 25.67014168 -218.84413385 24.80332631 -214.5625 23.9375 C-213.75901123 23.77515869 -212.95552246 23.61281738 -212.12768555 23.44555664 C-211.34433838 23.28692139 -210.56099121 23.12828613 -209.75390625 22.96484375 C-208.9762793 22.80741699 -208.19865234 22.64999023 -207.39746094 22.48779297 C-205.74383887 22.15134318 -204.09087953 21.81162525 -202.43847656 21.46923828 C-197.51274671 20.45962243 -192.61873361 19.61732689 -187.625 19 C-176.64007233 18.57478655 -176.64007233 18.57478655 -167 15 C-164.01161052 14.50593944 -161.0319395 14.0662365 -158.03125 13.66015625 C-156.66703918 13.46962929 -156.66703918 13.46962929 -155.27526855 13.2752533 C-152.35071585 12.86702015 -149.42545702 12.46419809 -146.5 12.0625 C-143.60313295 11.66420491 -140.70648302 11.26459508 -137.8104248 10.86045837 C-136.00662359 10.6087585 -134.20236255 10.36032423 -132.39758301 10.11573792 C-127.50300274 9.43300675 -122.71904203 8.55613038 -117.91287231 7.40136719 C-115.36858128 6.86751298 -112.96697118 6.83961589 -110.375 6.9375 C-107.40162423 7.04018415 -104.74210638 6.96266504 -101.7890625 6.53515625 C-97.18927343 5.88549532 -92.63822522 5.68229014 -88 5.5 C-87.05753418 5.46011963 -86.11506836 5.42023926 -85.14404297 5.37915039 C-83.14133315 5.29453582 -81.13856384 5.21131938 -79.13574219 5.12939453 C-74.83754861 4.95203214 -70.53989674 4.76289867 -66.2421875 4.57421875 C-61.82821933 4.38062365 -57.41411601 4.19018981 -53 4 C-52.67 3.34 -52.34 2.68 -52 2 C-51.13375 2.165 -50.2675 2.33 -49.375 2.5 C-40.56244582 3.74874249 -31.5349847 3.1622664 -22.72265625 2.21484375 C-19.73459665 1.97905712 -16.80868992 2.00625113 -13.8125 2.0625 C-8.83432396 2.12091406 -4.7487619 1.46115751 0 0 Z " fill="#D4D5D9" transform="translate(4772,2268)"/>
<path d="M0 0 C588.06 0 1176.12 0 1782 0 C1775.12642283 6.87357717 1766.15677399 11.96199768 1757.9453125 17.12109375 C1754.42919444 19.36413458 1750.96415627 21.67783513 1747.5 24 C1742.36891464 27.4360861 1737.20568313 30.80739394 1731.984375 34.10546875 C1728.26707102 36.4652756 1724.57065855 38.85648625 1720.875 41.25 C1719.79508789 41.94826904 1719.79508789 41.94826904 1718.69335938 42.66064453 C1714.9598784 45.07618361 1711.23282441 47.50087817 1707.515625 49.94140625 C1695.28801037 57.94854779 1695.28801037 57.94854779 1689.375 61.0625 C1685.18684596 63.26875972 1681.28013945 65.77140452 1677.375 68.4375 C1666.56208327 75.79090799 1655.24678327 82.33933401 1644 89 C1642.51330811 89.88171875 1642.51330811 89.88171875 1640.99658203 90.78125 C1636.3809534 93.51781944 1631.76172438 96.2480583 1627.13671875 98.96875 C1623.73277953 100.97220036 1620.34057882 102.99355971 1616.95703125 105.03125 C1616.17070313 105.50199951 1615.384375 105.97274902 1614.57421875 106.45776367 C1613.10883325 107.33550808 1611.64638574 108.21818379 1610.1875 109.10668945 C1605.33757529 112 1605.33757529 112 1602 112 C1602 112.66 1602 113.32 1602 114 C1601.472854 114.2263916 1600.94570801 114.4527832 1600.40258789 114.68603516 C1594.28834977 117.35273498 1588.35014372 120.28929413 1582.4375 123.375 C1581.45168945 123.88885254 1580.46587891 124.40270508 1579.45019531 124.93212891 C1569.9691142 129.92697426 1560.732456 135.31025135 1551.515625 140.7734375 C1546.08127885 143.98312688 1540.55535834 147.00614721 1535 150 C1525.5261403 155.17576068 1516.339735 160.70221932 1507.34765625 166.6796875 C1505 168 1505 168 1502 168 C1502 168.66 1502 169.32 1502 170 C1501.07380859 170.43699219 1501.07380859 170.43699219 1500.12890625 170.8828125 C1494.86157981 173.4322947 1490.01794532 176.22566238 1485.19921875 179.5390625 C1483.09534359 180.93666341 1480.96898618 182.17052298 1478.75 183.375 C1475.08824508 185.36371172 1471.54060115 187.49003735 1468 189.6875 C1455.27261837 197.5649556 1442.29565705 204.98238171 1429.24658203 212.31201172 C1423.07120655 215.79282818 1417.02824736 219.41289076 1411.0234375 223.1796875 C1407.00728339 225.59768209 1402.87665383 227.76183216 1398.72241211 229.9309082 C1394.22947371 232.29449191 1389.88713698 234.84274768 1385.5625 237.5 C1379.86578882 240.98797979 1374.05253616 244.05722779 1368.04882812 246.98046875 C1363.27949599 249.31665661 1358.66324615 251.84894306 1354.0625 254.5 C1347.94437203 258.01248108 1341.71205258 261.10300446 1335.30078125 264.04199219 C1330.45351587 266.27592987 1325.74586266 268.69159556 1321.0625 271.25 C1316.3677917 273.80805295 1311.69056635 276.01015264 1306.6875 277.89453125 C1303.22369065 279.31932492 1299.90030156 280.99425939 1296.5625 282.6875 C1283.20468177 289.46232452 1269.6177184 295.76692352 1256 302 C1255.07058594 302.42925781 1254.14117188 302.85851562 1253.18359375 303.30078125 C1234.40556677 311.92852338 1234.40556677 311.92852338 1228 313 C1228 313.66 1228 314.32 1228 315 C1227.34515625 315.23074219 1226.6903125 315.46148437 1226.015625 315.69921875 C1220.01896997 317.84209124 1214.14322786 320.17485893 1208.28125 322.66015625 C1205.31619725 323.87088612 1202.32985281 324.99054293 1199.31958008 326.08300781 C1191.99690997 328.74450134 1184.96952365 331.79192788 1177.95019531 335.17236328 C1173.44858353 337.3374441 1168.9242563 339.2883542 1164.25390625 341.06640625 C1161.74362907 342.10619177 1159.39703497 343.34682834 1157 344.625 C1152.13914239 347.13258528 1147.38981933 348.23166405 1142 349 C1142 349.66 1142 350.32 1142 351 C1141.41621582 351.19110352 1140.83243164 351.38220703 1140.23095703 351.57910156 C1137.52786813 352.46607763 1134.82643999 353.3580151 1132.125 354.25 C1131.2071875 354.55035156 1130.289375 354.85070312 1129.34375 355.16015625 C1123.8952346 356.96353811 1118.56856813 358.94491782 1113.25488281 361.11181641 C1110.31976393 362.26794054 1107.34135053 363.18462739 1104.3125 364.0625 C1100.9256387 365.07579843 1097.75286766 366.10591386 1094.5 367.5 C1090.26755597 369.31390458 1085.95315138 370.56960252 1081.546875 371.89453125 C1075.62975101 373.738745 1069.81774588 375.8661056 1064 378 C1063.23816406 378.2784375 1062.47632813 378.556875 1061.69140625 378.84375 C1058.2704383 380.1102653 1054.88225648 381.44615798 1051.5 382.8125 C1047.95714492 384.24141587 1044.39458774 385.59746241 1040.80834961 386.91357422 C1027.75881539 391.71548642 1014.93626827 397.12326262 1002.1796875 402.65234375 C999.04289113 403.98182133 995.88124282 405.18977539 992.6875 406.375 C987.85210836 408.21993872 983.27865871 410.29485003 978.68359375 412.6640625 C975.3729106 414.31217551 972.01247511 415.83094495 968.625 417.3125 C967.46226562 417.82425781 966.29953125 418.33601563 965.1015625 418.86328125 C962 420 962 420 958 420 C957.67 420.99 957.34 421.98 957 423 C955.02 423 953.04 423 951 423 C951 423.66 951 424.32 951 425 C949.92363281 425.43570312 948.84726562 425.87140625 947.73828125 426.3203125 C941.03544073 429.04838326 934.35538088 431.77757235 927.8125 434.875 C920.96652918 438.09510985 913.96594032 440.90656178 906.95458984 443.74462891 C901.39630263 446.00031844 895.91538452 448.35811121 890.48046875 450.8984375 C887.608556 452.17383812 884.69322838 453.2743959 881.75 454.375 C877.08140257 456.13451254 872.58262523 458.09428312 868.08203125 460.24609375 C862.76202652 462.76162647 857.40428102 465.14111519 851.96484375 467.38671875 C851.30330292 467.66006042 850.64176208 467.9334021 849.96017456 468.21502686 C847.26661093 469.32462601 844.57110425 470.42933718 841.87329102 471.52856445 C839.85977038 472.35063863 837.8496814 473.18068875 835.83984375 474.01171875 C834.08208618 474.73041138 834.08208618 474.73041138 832.28881836 475.46362305 C828.91789958 476.93633853 828.91789958 476.93633853 825.78344727 479.15551758 C822.44402039 481.3684261 819.93942026 481.45663169 816 482 C814.08815198 482.93408026 812.17858382 483.87352891 810.28808594 484.85009766 C806.2122847 486.89843567 802.00811757 488.65117882 797.8125 490.4375 C796.8841333 490.83509521 795.9557666 491.23269043 794.99926758 491.64233398 C790.09871962 493.72842706 785.18627529 495.72084594 780.1875 497.5625 C771.42615138 500.85085033 763.17839433 505.28346527 754.90234375 509.625 C753.58943359 510.305625 753.58943359 510.305625 752.25 511 C751.14398437 511.5878125 751.14398437 511.5878125 750.015625 512.1875 C748 513 748 513 744 513 C744 513.66 744 514.32 744 515 C743.47535156 515.18433594 742.95070313 515.36867188 742.41015625 515.55859375 C735.54390558 518.12915348 729.20407659 521.45568739 722.80297852 525.00170898 C722.09584717 525.38786377 721.38871582 525.77401855 720.66015625 526.171875 C720.02730713 526.5234668 719.39445801 526.87505859 718.74243164 527.23730469 C717 528 717 528 714 528 C714 528.66 714 529.32 714 530 C711.78180273 532.04756671 710.02713322 532.99174206 707.125 533.875 C703.32520644 535.24292568 701.05739384 537.3884761 698 540 C696 541 694 542 692 543 C689.42281959 544.78357248 686.88855171 546.61499453 684.3671875 548.4765625 C682.16043979 549.89674667 680.56098514 550.56333433 678 551 C678 551.66 678 552.32 678 553 C675.73385801 554.48356762 673.47505888 555.84900767 671.125 557.1875 C665.6931762 560.35712595 660.48173682 563.6712046 655.36328125 567.33203125 C646.24389466 573.76835865 636.52034463 579.31438258 626.87353516 584.91210938 C625.33345323 585.80637639 623.79706568 586.70700277 622.26171875 587.609375 C618.72637223 589.64392611 615.20980288 591.36906017 611.40625 592.84765625 C605.12764975 595.32615717 598.94958128 598.02355582 592.76757812 600.73242188 C578.29982964 607 578.29982964 607 573 607 C573 607.66 573 608.32 573 609 C571.824375 609.37125 570.64875 609.7425 569.4375 610.125 C564.96784786 611.6196289 560.57307764 613.27730377 556.1875 615 C555.54159912 615.2489502 554.89569824 615.49790039 554.23022461 615.75439453 C550.7369882 617.14368272 547.95515829 618.70644431 545 621 C543.52014264 621.63269264 542.01749384 622.21381884 540.5 622.75 C535.28544312 624.7544173 530.64877458 627.40986438 525.8671875 630.28125 C523.45742195 631.72579611 521.0317434 633.09886255 518.5625 634.4375 C513.66692885 637.13361165 508.9357902 640.08555145 504.1875 643.03125 C501.49426208 644.69472048 498.78622324 646.32476914 496.0625 647.9375 C481.26674659 656.79108793 466.95822942 666.51431714 452.8125 676.36328125 C446.74443707 680.5747737 440.62449546 684.71139809 434.51342773 688.86010742 C433.60020752 689.48119385 432.6869873 690.10228027 431.74609375 690.7421875 C430.92810303 691.2976123 430.1101123 691.85303711 429.26733398 692.42529297 C427.7565277 693.47457697 426.27561646 694.56826851 424.82836914 695.70361328 C423 697 423 697 421 697 C421 697.66 421 698.32 421 699 C420.01 699.33 419.02 699.66 418 700 C417.525625 700.63421875 417.05125 701.2684375 416.5625 701.921875 C414.84108604 704.21135557 413.54489443 704.99626525 411 706.25 C406.053327 708.84111443 401.72241966 712.04946689 397.28515625 715.42578125 C395 717 395 717 393 717 C393 717.66 393 718.32 393 719 C391.5390625 720.2890625 391.5390625 720.2890625 389.625 721.625 C388.99851562 722.07101562 388.37203125 722.51703125 387.7265625 722.9765625 C386 724 386 724 384 724 C384 724.66 384 725.32 384 726 C382.35 726.33 380.7 726.66 379 727 C379 727.66 379 728.32 379 729 C378.34 729 377.68 729 377 729 C376.67 729.99 376.34 730.98 376 732 C374.390625 733.25390625 374.390625 733.25390625 372.25 734.5625 C363.25742237 740.3240402 354.97620521 747.17180608 346.66796875 753.8671875 C344.63821518 755.48980163 342.60009861 757.09772939 340.55078125 758.6953125 C334.9173079 763.08752482 329.3302937 767.47269136 324.0078125 772.2421875 C320.56257623 775.25844494 316.98135048 778.10954517 313.41796875 780.984375 C311.0500991 782.8834829 311.0500991 782.8834829 309.30078125 784.765625 C308 786 308 786 306 786 C306 786.66 306 787.32 306 788 C304.45111498 789.41706502 302.83238466 790.75809496 301.1875 792.0625 C299.66769531 793.27873047 299.66769531 793.27873047 298.1171875 794.51953125 C297.08851563 795.33808594 296.05984375 796.15664063 295 797 C293.26840877 798.41370209 291.53919967 799.83032748 289.8125 801.25 C284.43991932 805.64715537 279.05076742 810.02379166 273.6574707 814.39550781 C270.72160861 816.77757869 267.79438174 819.16640999 264.90234375 821.6015625 C261.95536848 824.03688257 258.94163992 826.34266697 255.875 828.625 C254.86179688 829.38039063 253.84859375 830.13578125 252.8046875 830.9140625 C251.87914062 831.60242188 250.95359375 832.29078125 250 833 C249.26007813 833.58523438 248.52015625 834.17046875 247.7578125 834.7734375 C246 836 246 836 244 836 C244 836.66 244 837.32 244 838 C242.35443434 839.03435556 240.6829392 840.02763513 239 841 C238.113125 841.721875 237.22625 842.44375 236.3125 843.1875 C234 845 234 845 232 845 C232 845.66 232 846.32 232 847 C230.15625 848.33984375 230.15625 848.33984375 227.5 849.9375 C222.52327544 853.01098106 217.68349005 856.23220252 212.875 859.5625 C211.49350304 860.5156445 210.11199296 861.46877 208.73046875 862.421875 C206.60680044 863.8888096 204.48439047 865.35748927 202.36328125 866.828125 C197.75348568 869.97304837 193.01107662 872.6756525 188.0859375 875.296875 C185.15156041 876.916354 182.29689318 878.62397413 179.43994141 880.37426758 C173.71426067 883.88130107 168.04988063 887.09533375 161.87109375 889.7578125 C158.3974596 891.26069095 154.98316466 892.88154236 151.5625 894.5 C147.02109388 896.63716593 142.4628025 898.66951037 137.8125 900.5625 C132.68094393 902.6564504 127.78334209 905.08986113 122.84765625 907.60546875 C120.36116006 908.82313561 117.89484756 909.88313385 115.3125 910.875 C107.68826191 913.82710499 100.36027371 917.45223041 93 921 C92.31035156 921.3304834 91.62070313 921.6609668 90.91015625 922.00146484 C80.21535499 927.14615691 69.15334944 932.51333232 59.703125 939.76171875 C58 941 58 941 56 941 C56 941.66 56 942.32 56 943 C54.30508386 944.40268922 52.542165 945.72390346 50.75 947 C49.77546875 947.70125 48.8009375 948.4025 47.796875 949.125 C45.56397928 950.62191333 43.43735928 951.88577861 41 953 C41 953.66 41 954.32 41 955 C39.5390625 956.5078125 39.5390625 956.5078125 37.625 958.125 C36.99851563 958.66382813 36.37203125 959.20265625 35.7265625 959.7578125 C34 961 34 961 32 961 C32 961.66 32 962.32 32 963 C30.5234375 964.33984375 30.5234375 964.33984375 28.375 965.9375 C23.57477684 969.56045324 18.84827862 973.26485039 14.13818359 977.00366211 C2.73510941 986 2.73510941 986 0 986 C0 660.62 0 335.24 0 0 Z " fill="#D6DAD7" transform="translate(0,0)"/>
<path d="M0 0 C3.76075826 1.47785149 4.67978659 4.25626826 6.2421875 7.75390625 C6.57686035 8.46417969 6.9115332 9.17445313 7.25634766 9.90625 C7.98477794 11.45437251 8.70583225 13.00598185 9.42041016 14.56054688 C10.56288298 17.02156022 11.74542633 19.45911635 12.94140625 21.89453125 C23.77998883 44.05831791 34.44293765 67.16151273 39.06298828 91.53955078 C39.86770896 95.57274369 40.92840571 99.53259034 41.9921875 103.50390625 C42.21173096 104.33704346 42.43127441 105.17018066 42.6574707 106.02856445 C43.74589713 110.12529728 44.9034198 114.1682727 46.2421875 118.19140625 C47.83910321 123.26183919 48.35258122 128.46917311 48.90893555 133.73706055 C48.99970068 137.16429431 48.99970068 137.16429431 50.5546875 140.00390625 C51.06406136 143.31483636 51.27255996 146.66686645 51.5546875 150.00390625 C51.6371875 150.88691406 51.7196875 151.76992187 51.8046875 152.6796875 C54.02127298 178.27432298 53.79387065 204.02448213 53.8046875 229.69140625 C53.80601307 231.13255861 53.80601307 231.13255861 53.80736542 232.60282516 C53.82868067 258.78739183 53.52522622 284.91399256 52.1796875 311.06640625 C52.11656372 312.29741058 52.05343994 313.52841492 51.98840332 314.79672241 C49.98991097 352.61988642 49.98991097 352.61988642 47.5546875 367.00390625 C47.34960172 369.31158472 47.17296184 371.62190623 47.01953125 373.93359375 C46.93251953 375.22265625 46.84550781 376.51171875 46.75585938 377.83984375 C46.6679044 379.18619371 46.58001457 380.53254794 46.4921875 381.87890625 C46.40066166 383.24871605 46.30886736 384.61850795 46.21679688 385.98828125 C45.99345488 389.3266564 45.77284413 392.6651889 45.5546875 396.00390625 C44.8946875 396.00390625 44.2346875 396.00390625 43.5546875 396.00390625 C43.57644043 396.84888672 43.59819336 397.69386719 43.62060547 398.56445312 C43.76325091 408.74254486 42.99964012 418.70870161 41.95556641 428.82861328 C41.68013032 431.49961205 41.41530869 434.17149736 41.15234375 436.84375 C40.14751892 446.92691231 38.9762577 456.97064363 37.5546875 467.00390625 C36.8946875 467.00390625 36.2346875 467.00390625 35.5546875 467.00390625 C35.2246875 473.60390625 34.8946875 480.20390625 34.5546875 487.00390625 C33.8946875 487.00390625 33.2346875 487.00390625 32.5546875 487.00390625 C32.49410156 488.05449219 32.43351562 489.10507813 32.37109375 490.1875 C32.28657863 491.60547593 32.20193634 493.02344427 32.1171875 494.44140625 C32.07787109 495.12912109 32.03855469 495.81683594 31.99804688 496.52539062 C31.77981396 500.13462732 31.48340872 503.70814247 31.0390625 507.296875 C30.52198905 511.75405771 30.4090876 516.18002097 30.31518555 520.66357422 C30.05765357 532.0070394 29.02096839 542.97392862 27.20996094 554.16894531 C25.40843693 565.43249881 24.19463243 576.73697353 23.0378418 588.08154297 C22.19819443 596.15030663 21.07541719 604.09030222 19.60217285 612.06843567 C18.58325237 617.64272946 17.92629312 623.17079259 17.4921875 628.81640625 C16.92894431 635.39554069 16.17453354 641.83974709 14.984375 648.33984375 C14.53461232 651.12837239 14.30705557 653.87376412 14.1171875 656.69140625 C13.77446208 661.3122904 13.09772627 665.76273214 12.2421875 670.31640625 C10.67793479 678.66990923 9.56642733 687.0760724 8.4921875 695.50390625 C8.40529663 696.18427948 8.31840576 696.86465271 8.22888184 697.56564331 C7.26168331 705.16407518 6.34200925 712.7664574 5.4921875 720.37890625 C4.79637567 726.43979353 3.83766193 732.40774105 2.73242188 738.40380859 C1.54092987 744.90163117 0.5677157 751.42505741 -0.35522461 757.96606445 C-0.91107786 761.81443097 -1.55554373 765.57587921 -2.47265625 769.35546875 C-3.72983885 774.81298717 -4.0646421 780.3027899 -4.4453125 785.87890625 C-4.58560595 787.9183574 -4.73141417 789.95743689 -4.8828125 791.99609375 C-4.94339844 792.8866748 -5.00398438 793.77725586 -5.06640625 794.69482422 C-5.61646182 799.49859558 -6.58037263 804.24673698 -7.4453125 809.00390625 C-159.2453125 809.00390625 -311.0453125 809.00390625 -467.4453125 809.00390625 C-467.4453125 801.00390625 -467.4453125 801.00390625 -466.4453125 799.00390625 C-466.0961711 796.54524668 -465.78708663 794.09554388 -465.5078125 791.62890625 C-464.93587853 786.7895063 -464.30959969 781.98922095 -463.4453125 777.19140625 C-461.54155158 766.13146188 -460.18102344 754.83274124 -460.44140625 743.6015625 C-460.44743786 739.59053879 -460.04661803 735.62307917 -459.6640625 731.6328125 C-459.47973054 728.57487698 -459.45836665 725.60662019 -459.49609375 722.546875 C-459.52441697 715.23665178 -458.86357825 708.02124106 -458.1328125 700.75390625 C-458.06528778 700.06671509 -457.99776306 699.37952393 -457.92819214 698.67150879 C-457.07851776 690.08114725 -456.03033206 681.64165684 -454.26171875 673.1875 C-452.37888019 663.98328918 -451.26139772 654.61108637 -449.92285156 645.31591797 C-449.48440323 642.27502324 -449.04013403 639.23505056 -448.59375 636.1953125 C-447.53619142 628.944979 -446.49895103 621.70634396 -445.73120117 614.41894531 C-444.51518891 602.9738113 -442.08740013 591.87666907 -439.0078125 580.79296875 C-437.27095917 574.48996904 -435.82229068 568.13031597 -434.3828125 561.75390625 C-432.88260629 555.11823343 -431.36138069 548.53180956 -429.4453125 542.00390625 C-428.97159891 540.02836441 -428.51322284 538.04908135 -428.0703125 536.06640625 C-426.47678655 529.07879496 -424.76652122 522.1253858 -422.99560547 515.18115234 C-422.42745905 512.93326867 -421.87570558 510.68171082 -421.32421875 508.4296875 C-419.24157556 500.06704741 -416.85499662 491.90969626 -413.8828125 483.81640625 C-413.60203857 483.05094482 -413.32126465 482.2854834 -413.03198242 481.49682617 C-411.64556785 477.82965291 -410.13722779 474.31165138 -408.34375 470.82421875 C-406.7072232 467.63407203 -405.57839494 464.53664721 -404.6328125 461.06640625 C-401.12438148 449.19277498 -395.96102211 437.90581359 -390.7109375 426.71484375 C-389.75223458 424.66132577 -388.83804587 422.58695078 -387.9453125 420.50390625 C-386.13631604 416.28291451 -384.19807173 412.12873062 -382.26171875 407.96484375 C-380.8652141 404.94105949 -379.50784909 401.90131037 -378.16015625 398.85546875 C-377.76328613 397.96174561 -377.36641602 397.06802246 -376.95751953 396.1472168 C-376.16920548 394.369259 -375.38489908 392.58951784 -374.60498047 390.80786133 C-374.23904785 389.98439209 -373.87311523 389.16092285 -373.49609375 388.3125 C-373.17294189 387.57829834 -372.84979004 386.84409668 -372.5168457 386.08764648 C-371.36798276 383.85352818 -369.96891671 381.9956891 -368.4453125 380.00390625 C-367.6137517 377.92885406 -366.95398977 375.84424581 -366.2890625 373.7109375 C-366.010625 373.14761719 -365.7321875 372.58429687 -365.4453125 372.00390625 C-364.4553125 371.67390625 -363.4653125 371.34390625 -362.4453125 371.00390625 C-362.50074219 370.28847656 -362.55617188 369.57304687 -362.61328125 368.8359375 C-362.41262077 365.4527085 -361.43990312 363.61917607 -359.7578125 360.69140625 C-359.20867188 359.7271875 -358.65953125 358.76296875 -358.09375 357.76953125 C-356.33437943 354.81779106 -354.50737071 351.91802434 -352.65625 349.0234375 C-351.30978868 346.77788749 -350.15665774 344.48147787 -349.0078125 342.12890625 C-343.90488914 331.71639907 -337.58872127 321.62021367 -330.7578125 312.25390625 C-328.38967969 309.06935442 -328.38967969 309.06935442 -326.6328125 305.62890625 C-322.40236038 297.97955812 -315.39444422 291.48134954 -308.8203125 285.81640625 C-305.6198447 283.03988102 -302.46164346 280.22218924 -299.3203125 277.37890625 C-288.90364583 268.00390625 -288.90364583 268.00390625 -286.4453125 268.00390625 C-286.4453125 267.34390625 -286.4453125 266.68390625 -286.4453125 266.00390625 C-284.7451763 263.94584664 -283.15565551 262.83838797 -280.8203125 261.50390625 C-278.14774937 260.16661318 -278.14774937 260.16661318 -277.4453125 257.00390625 C-276.7853125 257.00390625 -276.1253125 257.00390625 -275.4453125 257.00390625 C-275.4453125 255.68390625 -275.4453125 254.36390625 -275.4453125 253.00390625 C-273.81730692 251.29945519 -272.1441934 249.63772363 -270.4453125 248.00390625 C-269.0382442 245.91355911 -267.6869909 243.78494685 -266.3828125 241.62890625 C-261.75764575 234.19036085 -256.42172671 227.46128939 -250.8515625 220.71435547 C-249.58796649 219.17741908 -248.3434992 217.62480327 -247.1015625 216.0703125 C-242.63216342 210.49166039 -237.92503553 205.21149523 -233.04272461 199.99755859 C-228.9353689 195.59218872 -225.02304673 191.04690297 -221.18603516 186.40478516 C-218.42984123 183.08822527 -215.5081969 180.03641494 -212.4453125 177.00390625 C-211.4715716 175.87113731 -210.51090771 174.72684472 -209.5703125 173.56640625 C-206.98626688 170.50407969 -204.18685348 167.96177728 -201.109375 165.40625 C-197.95902994 162.75138174 -195.13933025 159.94578749 -192.6953125 156.62890625 C-190.55541751 154.1323621 -188.50475178 152.46083024 -185.8828125 150.50390625 C-182.43336909 147.9070082 -180.57177526 145.77354478 -178.4453125 142.00390625 C-172.40245536 136.00390625 -172.40245536 136.00390625 -169.4453125 136.00390625 C-169.1153125 135.01390625 -168.7853125 134.02390625 -168.4453125 133.00390625 C-167.7853125 133.00390625 -167.1253125 133.00390625 -166.4453125 133.00390625 C-166.4453125 132.34390625 -166.4453125 131.68390625 -166.4453125 131.00390625 C-164.765625 129.27734375 -164.765625 129.27734375 -162.5703125 127.37890625 C-161.85101562 126.74726563 -161.13171875 126.115625 -160.390625 125.46484375 C-158.4453125 124.00390625 -158.4453125 124.00390625 -156.4453125 124.00390625 C-156.05472656 123.11058594 -156.05472656 123.11058594 -155.65625 122.19921875 C-154.35764625 119.84497582 -153.12052094 118.60038928 -151.0703125 116.87890625 C-150.35746094 116.275625 -149.64460938 115.67234375 -148.91015625 115.05078125 C-148.09675781 114.3753125 -147.28335938 113.69984375 -146.4453125 113.00390625 C-145.51847656 112.2253125 -144.59164062 111.44671875 -143.63671875 110.64453125 C-141.09404449 108.51516555 -138.54465303 106.39469184 -135.98876953 104.28125 C-134.47068566 103.02490473 -132.95601497 101.76443887 -131.44140625 100.50390625 C-123.53315959 93.96211853 -123.53315959 93.96211853 -120.0078125 91.69140625 C-117.4416126 90.1313138 -117.4416126 90.1313138 -115.62890625 88.1484375 C-112.42420645 85.00106685 -108.76804721 82.58253286 -105.1015625 80.00390625 C-102.64457577 78.15393977 -100.57320114 76.2154237 -98.4453125 74.00390625 C-94.80245536 71.00390625 -94.80245536 71.00390625 -92.4453125 71.00390625 C-92.4453125 70.34390625 -92.4453125 69.68390625 -92.4453125 69.00390625 C-88.98377404 66.00390625 -88.98377404 66.00390625 -86.4453125 66.00390625 C-86.4453125 65.34390625 -86.4453125 64.68390625 -86.4453125 64.00390625 C-84.828125 62.55859375 -84.828125 62.55859375 -82.5703125 60.87890625 C-79.10664099 58.26481454 -75.69274316 55.60995439 -72.3203125 52.87890625 C-61.23519577 44.00390625 -61.23519577 44.00390625 -58.4453125 44.00390625 C-58.4453125 43.34390625 -58.4453125 42.68390625 -58.4453125 42.00390625 C-56.76741376 40.64630692 -55.02588162 39.3667882 -53.2578125 38.12890625 C-46.4583154 33.90509673 -46.4583154 33.90509673 -41.4453125 28.00390625 C-39.78683073 26.99038961 -38.11828374 25.99332276 -36.4453125 25.00390625 C-34.38147357 23.46287002 -32.34492268 21.90682292 -30.3203125 20.31640625 C-26.0559339 17.00834138 -21.7814729 13.71783544 -17.4453125 10.50390625 C-16.5996875 9.87484375 -15.7540625 9.24578125 -14.8828125 8.59765625 C-12.46723206 7.01823827 -10.15679132 5.97229154 -7.4453125 5.00390625 C-7.4453125 4.34390625 -7.4453125 3.68390625 -7.4453125 3.00390625 C-4.89800371 1.03883947 -3.25429518 0.00519855 0 0 Z " fill="#C3B9B1" transform="translate(4028.4453125,2523.99609375)"/>
<path d="M0 0 C0.33 0 0.66 0 1 0 C1.56657674 11.15841411 0.47184551 21.6868014 -1.29370117 32.70581055 C-3.09752999 44.12378824 -4.34417901 55.57769739 -5.51660156 67.07543945 C-6.35635067 75.14493972 -7.47913513 83.08566396 -8.95251465 91.06452942 C-9.97143513 96.63882321 -10.62839438 102.16688634 -11.0625 107.8125 C-11.62574319 114.39163444 -12.38015396 120.83584084 -13.5703125 127.3359375 C-14.02007518 130.12446614 -14.24763193 132.86985787 -14.4375 135.6875 C-14.78022542 140.30838415 -15.45696123 144.75882589 -16.3125 149.3125 C-17.87675128 157.66599535 -18.98838002 166.07215468 -20.0625 174.5 C-20.14905853 175.17804687 -20.23561707 175.85609375 -20.32479858 176.5546875 C-21.31038681 184.3014549 -22.24990369 192.0524681 -23.125 199.8125 C-23.78846543 205.61782251 -24.68492516 211.30600577 -26 217 C-26.33 217 -26.66 217 -27 217 C-27.11528459 210.67202489 -26.72453769 204.65870306 -25.86328125 198.39453125 C-25.74359482 197.48869797 -25.62390839 196.58286469 -25.50059509 195.64958191 C-25.11002091 192.70313164 -24.71132139 189.75784423 -24.3125 186.8125 C-24.03882839 184.75984016 -23.76572297 182.70710476 -23.49316406 180.65429688 C-22.93715712 176.47179509 -22.37817865 172.28970691 -21.81689453 168.10791016 C-21.05324307 162.41058697 -20.30301091 156.7115836 -19.55859375 151.01171875 C-19.44659134 150.15496048 -19.33458893 149.29820221 -19.2191925 148.41548157 C-19.00086386 146.74528404 -18.78256572 145.07508253 -18.56430054 143.40487671 C-18.46058136 142.6112674 -18.35686218 141.81765808 -18.25 141 C-18.14958405 140.23160797 -18.04916809 139.46321594 -17.94570923 138.67153931 C-17.02564615 131.64136964 -16.09749742 124.61373001 -15.07421875 117.59765625 C-13.26361993 105.04882744 -11.71963803 92.46193574 -10.10717773 79.88647461 C-8.61184117 68.23413495 -7.10926968 56.58610807 -5.4140625 44.9609375 C-4.02088276 35.38959395 -2.87827824 25.80013875 -1.8125 16.1875 C-1.63375071 14.59697291 -1.45471465 13.00647802 -1.27539062 11.41601562 C-0.84698733 7.61103634 -0.42234875 3.80565588 0 0 Z " fill="#CBC7C4" transform="translate(4057,3045)"/>
<path d="M0 0 C0.33 0 0.66 0 1 0 C1.29581841 22.05490623 1.288863 45.08460204 -2.49780273 66.86303711 C-3.03581432 70.22371328 -3.30977416 73.5339307 -3.53515625 76.9296875 C-3.66567383 78.86328125 -3.66567383 78.86328125 -3.79882812 80.8359375 C-3.8867831 82.18228746 -3.97467293 83.52864169 -4.0625 84.875 C-4.15402584 86.2448098 -4.24582014 87.6146017 -4.33789062 88.984375 C-4.56123262 92.32275015 -4.78184337 95.66128265 -5 99 C-5.66 99 -6.32 99 -7 99 C-6.97824707 99.84498047 -6.95649414 100.68996094 -6.93408203 101.56054688 C-6.79143659 111.73863861 -7.55504738 121.70479536 -8.59912109 131.82470703 C-8.87455718 134.4957058 -9.13937881 137.16759111 -9.40234375 139.83984375 C-10.40716858 149.92300606 -11.5784298 159.96673738 -13 170 C-13.33 170 -13.66 170 -14 170 C-14.56794531 158.92506639 -13.69165183 148.17885363 -12.3125 137.1875 C-10.49884042 122.6240192 -8.94312997 108.04860261 -7.5625 93.4375 C-7.45971741 92.35082031 -7.35693481 91.26414062 -7.2510376 90.14453125 C-4.43443039 60.13000922 -2.22409073 30.06314414 0 0 Z " fill="#CBC7C4" transform="translate(4079,2821)"/>
<path d="M0 0 C0.33 0 0.66 0 1 0 C0.71774702 12.65904628 -0.34654766 25.13428951 -1.9375 37.6875 C-2.02286011 38.38320099 -2.10822021 39.07890198 -2.19616699 39.79568481 C-2.4425034 41.78561196 -2.70338 43.77372268 -2.96484375 45.76171875 C-3.1155835 46.91631592 -3.26632324 48.07091309 -3.42163086 49.26049805 C-4 52 -4 52 -6 54 C-6.19018656 46.52725321 -5.4488891 39.34481897 -4.5 31.9375 C-4.35691406 30.78572266 -4.21382812 29.63394531 -4.06640625 28.44726562 C-3.71581648 25.63086114 -3.36024128 22.81518341 -3 20 C-2.34 20 -1.68 20 -1 20 C-1.01160156 18.72382813 -1.02320312 17.44765625 -1.03515625 16.1328125 C-1.04453417 14.46354313 -1.05363437 12.79427217 -1.0625 11.125 C-1.07087891 10.28324219 -1.07925781 9.44148438 -1.08789062 8.57421875 C-1.09111328 7.76855469 -1.09433594 6.96289062 -1.09765625 6.1328125 C-1.10289307 5.38918457 -1.10812988 4.64555664 -1.11352539 3.87939453 C-1 2 -1 2 0 0 Z " fill="#CBC8C5" transform="translate(4064,2991)"/>
<path d="M0 0 C2 1 2 1 2.74609375 2.8984375 C2.97425781 3.71570312 3.20242187 4.53296875 3.4375 5.375 C3.69273437 6.27863281 3.94796875 7.18226563 4.2109375 8.11328125 C4.47132813 9.06589844 4.73171875 10.01851562 5 11 C5.26039063 11.92167969 5.52078125 12.84335938 5.7890625 13.79296875 C8.1315729 22.18104891 9.98985797 30.63637457 11.625 39.1875 C11.7590625 39.85974609 11.893125 40.53199219 12.03125 41.22460938 C12.79110537 45.20609644 13.1385922 48.94932787 13 53 C12.34 52.67 11.68 52.34 11 52 C10.61896444 49.56863027 10.34494063 47.19676954 10.125 44.75 C9.43792489 38.32206234 8.13008696 32.51902524 6.08203125 26.3671875 C4.83467694 22.48552897 3.80101417 18.57905669 2.8125 14.625 C2.64572754 13.97080078 2.47895508 13.31660156 2.30712891 12.64257812 C1.2645137 8.4378278 0.54866764 4.28958335 0 0 Z " fill="#CBC8C5" transform="translate(4066,2611)"/>
<path d="M0 0 C0.33 0 0.66 0 1 0 C0.65511172 12.34700048 -1.34686973 23.95602257 -4 36 C-4.33 36 -4.66 36 -5 36 C-5.38902036 28.29739687 -3.91944294 21.04990192 -2.5 13.5 C-2.25846742 12.18761894 -2.01757667 10.87511959 -1.77734375 9.5625 C-1.19118241 6.37378229 -0.59856591 3.18640834 0 0 Z " fill="#CBC6C3" transform="translate(4029,3262)"/>
<path d="M0 0 C0.33 0 0.66 0 1 0 C1.20482359 11.5611537 0.29863814 22.66302742 -2 34 C-2.33 34 -2.66 34 -3 34 C-3.65387869 22.52079636 -1.70394795 11.31735643 0 0 Z " fill="#CBC6C3" transform="translate(4023,3299)"/>
<path d="M0 0 C0.99 0 1.98 0 3 0 C3 0.66 3 1.32 3 2 C4.98 2.66 6.96 3.32 9 4 C7.625 6 7.625 6 6 8 C5.34 8 4.68 8 4 8 C4 7.34 4 6.68 4 6 C3.34 6 2.68 6 2 6 C2 5.34 2 4.68 2 4 C0.35 4.33 -1.3 4.66 -3 5 C-1.125 1.125 -1.125 1.125 0 0 Z " fill="#DED4CB" transform="translate(4134,325)"/>
<path d="M0 0 C1.98 0 3.96 0 6 0 C5.67 1.32 5.34 2.64 5 4 C4.4225 4.103125 3.845 4.20625 3.25 4.3125 C0.67950842 5.09792798 -0.93657284 6.30504197 -3 8 C-4 7 -4 7 -4.0625 4.4375 C-4.041875 3.633125 -4.02125 2.82875 -4 2 C-2.68 2 -1.36 2 0 2 C0 1.34 0 0.68 0 0 Z " fill="#DAD0C7" transform="translate(3490,1827)"/>
<path d="M0 0 C0 0.66 0 1.32 0 2 C-4.28297531 3.05619003 -8.42985646 3.11702092 -12.8125 3.0625 C-13.50537109 3.05798828 -14.19824219 3.05347656 -14.91210938 3.04882812 C-16.60811068 3.03713156 -18.30406703 3.01919924 -20 3 C-20 2.34 -20 1.68 -20 1 C-6.3667426 -0.14806378 -6.3667426 -0.14806378 0 0 Z " fill="#FDF8EE" transform="translate(4832,1894)"/>
<path d="M0 0 C5.44567686 1.02862785 10.11817117 2.24614784 15 5 C14.67 6.32 14.34 7.64 14 9 C11 8 11 8 9.6875 6.5625 C7.97038211 4.75417648 7.97038211 4.75417648 4.9375 4 C2 3 2 3 0 0 Z " fill="#F9F3EC" transform="translate(2099,1046)"/>
<path d="M0 0 C-2.05828505 1.46460693 -4.12124544 2.921712 -6.1875 4.375 C-6.76564453 4.7875 -7.34378906 5.2 -7.93945312 5.625 C-11.18278051 7.89716155 -14.24892127 9.71431953 -18 11 C-17.34 9.68 -16.68 8.36 -16 7 C-14.68 7 -13.36 7 -12 7 C-11.67 6.01 -11.34 5.02 -11 4 C-9.2578125 2.578125 -9.2578125 2.578125 -7.125 1.25 C-6.42632813 0.80140625 -5.72765625 0.3528125 -5.0078125 -0.109375 C-3 -1 -3 -1 0 0 Z " fill="#D2CFCC" transform="translate(4086,2486)"/>
<path d="M0 0 C0.66 0 1.32 0 2 0 C1.67 1.65 1.34 3.3 1 5 C-1.31 5.66 -3.62 6.32 -6 7 C-7.5 5.625 -7.5 5.625 -9 4 C-9 3.34 -9 2.68 -9 2 C-6.03 2.33 -3.06 2.66 0 3 C0 2.01 0 1.02 0 0 Z " fill="#CEB9A9" transform="translate(3249,2021)"/>
<path d="M0 0 C0.99 0.33 1.98 0.66 3 1 C2.34 2.32 1.68 3.64 1 5 C-2.94727588 5.17942163 -5.5980513 5.09350689 -9 3 C-9 2.34 -9 1.68 -9 1 C-7.700625 1.020625 -6.40125 1.04125 -5.0625 1.0625 C-3.70834367 1.08399454 -2.35243917 1.07148199 -1 1 C-0.67 0.67 -0.34 0.34 0 0 Z " fill="#E6D2C1" transform="translate(3248,2019)"/>
<path d="M0 0 C1.4540625 0.0309375 1.4540625 0.0309375 2.9375 0.0625 C2.6075 1.3825 2.2775 2.7025 1.9375 4.0625 C-0.7025 4.3925 -3.3425 4.7225 -6.0625 5.0625 C-3.64893617 0.07446809 -3.64893617 0.07446809 0 0 Z " fill="#F9F3EA" transform="translate(4363.0625,2015.9375)"/>
<path d="M0 0 C1.2065625 0.0309375 1.2065625 0.0309375 2.4375 0.0625 C-0.55731865 4.29047927 -0.55731865 4.29047927 -2.5625 6.0625 C-5.875 6.4375 -5.875 6.4375 -8.5625 6.0625 C-2.5625 0.0625 -2.5625 0.0625 0 0 Z " fill="#DDD3CA" transform="translate(4586.5625,1414.9375)"/>
<path d="M0 0 C4.455 0.99 4.455 0.99 9 2 C8.34 3.32 7.68 4.64 7 6 C5.68 6 4.36 6 3 6 C3 5.01 3 4.02 3 3 C1.68 2.67 0.36 2.34 -1 2 C-0.67 1.34 -0.34 0.68 0 0 Z " fill="#F4EFE4" transform="translate(3675,1721)"/>
<path d="M0 0 C1.77074917 -0.02705729 3.54161711 -0.04642195 5.3125 -0.0625 C6.29863281 -0.07410156 7.28476562 -0.08570313 8.30078125 -0.09765625 C11 0 11 0 14 1 C14 1.99 14 2.98 14 4 C12.68 4 11.36 4 10 4 C10 3.01 10 2.02 10 1 C5.545 1.495 5.545 1.495 1 2 C0.67 1.34 0.34 0.68 0 0 Z " fill="#DCD2C9" transform="translate(4817,1898)"/>
<path d="M0 0 C3.63 0 7.26 0 11 0 C10.67 0.99 10.34 1.98 10 3 C3.375 3.125 3.375 3.125 0 2 C0 1.34 0 0.68 0 0 Z " fill="#E7DFD6" transform="translate(1648,1757)"/>
<path d="M0 0 C2.475 0.495 2.475 0.495 5 1 C5 1.66 5 2.32 5 3 C5.66 3.33 6.32 3.66 7 4 C6.67 4.99 6.34 5.98 6 7 C2.99390037 5.99796679 1.93823179 5.39971554 0 3 C0 2.01 0 1.02 0 0 Z " fill="#E1D7CD" transform="translate(1731,1427)"/>
<path d="M0 0 C4.455 0.99 4.455 0.99 9 2 C8.67 2.99 8.34 3.98 8 5 C4.62537285 4.45276317 2.91765 3.9451 0 2 C0 1.34 0 0.68 0 0 Z " fill="#DAD1C9" transform="translate(19,2842)"/>
<path d="M0 0 C1.32 0.33 2.64 0.66 4 1 C3.16855469 1.61488281 3.16855469 1.61488281 2.3203125 2.2421875 C1.59585938 2.78101562 0.87140625 3.31984375 0.125 3.875 C-0.59429688 4.40867187 -1.31359375 4.94234375 -2.0546875 5.4921875 C-4.08252632 6.99873162 -4.08252632 6.99873162 -6 9 C-6 6 -6 6 -4.125 3.8125 C-2 2 -2 2 0 2 C0 1.34 0 0.68 0 0 Z " fill="#BFB0A5" transform="translate(4021,2527)"/>
<path d="M0 0 C0 1.32 0 2.64 0 4 C-1.65 4.66 -3.3 5.32 -5 6 C-5.66 4.68 -6.32 3.36 -7 2 C-4 0 -4 0 0 0 Z " fill="#DDD2CA" transform="translate(4246,2158)"/>
<path d="M0 0 C1.98 0 3.96 0 6 0 C5.67 1.32 5.34 2.64 5 4 C3.35 4.33 1.7 4.66 0 5 C0 3.35 0 1.7 0 0 Z " fill="#DAD1C8" transform="translate(3543,1522)"/>
<path d="M0 0 C0.99 0.33 1.98 0.66 3 1 C3 1.99 3 2.98 3 4 C0.98177083 3.73958333 -1.03645833 3.47916667 -3.0546875 3.21875 C-5.00498344 2.9627515 -5.00498344 2.9627515 -7 3 C-6.67 2.01 -6.34 1.02 -6 0 C-3.46924326 -1.26537837 -2.64724917 -0.80219672 0 0 Z " fill="#E3D9D0" transform="translate(945,2321)"/>
<path d="M0 0 C1.32 0 2.64 0 4 0 C4 1.98 4 3.96 4 6 C2.35 6.33 0.7 6.66 -1 7 C-0.67 4.69 -0.34 2.38 0 0 Z " fill="#DED5CC" transform="translate(3706,1541)"/>
<path d="M0 0 C2.64 0 5.28 0 8 0 C7.67 1.32 7.34 2.64 7 4 C4.69 3.67 2.38 3.34 0 3 C0 2.01 0 1.02 0 0 Z " fill="#CAB5A5" transform="translate(3241,2127)"/>
<path d="M0 0 C1.65 0 3.3 0 5 0 C5 0.66 5 1.32 5 2 C4.34 2 3.68 2 3 2 C3 2.66 3 3.32 3 4 C0.69 4 -1.62 4 -4 4 C-4 3.34 -4 2.68 -4 2 C-2.68 2 -1.36 2 0 2 C0 1.34 0 0.68 0 0 Z " fill="#CDC2B9" transform="translate(4362,2020)"/>
<path d="M0 0 C2.97 0.33 5.94 0.66 9 1 C9 1.99 9 2.98 9 4 C4 3 4 3 -1 2 C-0.67 1.34 -0.34 0.68 0 0 Z " fill="#E5D0BF" transform="translate(3250,2013)"/>
<path d="M0 0 C2.97 0.495 2.97 0.495 6 1 C6 2.32 6 3.64 6 5 C3.03 4.505 3.03 4.505 0 4 C0 2.68 0 1.36 0 0 Z " fill="#FAF4EC" transform="translate(1954,1604)"/>
<path d="M0 0 C2.31 0 4.62 0 7 0 C6.67 1.32 6.34 2.64 6 4 C4.35 3.67 2.7 3.34 1 3 C0.67 2.01 0.34 1.02 0 0 Z " fill="#D9D0C7" transform="translate(4956,1559)"/>
<path d="M0 0 C1.875 0.25 1.875 0.25 4 1 C5.25 3.0625 5.25 3.0625 6 5 C3.36 4.67 0.72 4.34 -2 4 C-1.34 2.68 -0.68 1.36 0 0 Z " fill="#F7F0E8" transform="translate(2098,1036)"/>
<path d="M0 0 C1.32 0 2.64 0 4 0 C4 0.66 4 1.32 4 2 C3.01 2 2.02 2 1 2 C0.67 3.32 0.34 4.64 0 6 C-1.32 6.33 -2.64 6.66 -4 7 C-3.67 6.01 -3.34 5.02 -3 4 C-2.34 4 -1.68 4 -1 4 C-0.67 2.68 -0.34 1.36 0 0 Z " fill="#E6D1C0" transform="translate(3172,2694)"/>
<path d="M0 0 C1.32 0 2.64 0 4 0 C3.3125 1.9375 3.3125 1.9375 2 4 C-0.625 4.75 -0.625 4.75 -3 5 C-1.125 1.125 -1.125 1.125 0 0 Z " fill="#E6D1C0" transform="translate(3188,2296)"/>
<path d="M0 0 C0.66 0.33 1.32 0.66 2 1 C1.01 2.98 0.02 4.96 -1 7 C-2.32 7 -3.64 7 -5 7 C-5 6.01 -5 5.02 -5 4 C-4.01 4 -3.02 4 -2 4 C-1.34 2.68 -0.68 1.36 0 0 Z " fill="#E3D9D0" transform="translate(1918,1797)"/>
<path d="M0 0 C1.65 0 3.3 0 5 0 C5 1.32 5 2.64 5 4 C2.69 4 0.38 4 -2 4 C-1.34 2.68 -0.68 1.36 0 0 Z " fill="#E7DDD4" transform="translate(1756,1574)"/>
<path d="M0 0 C1.32 0 2.64 0 4 0 C4 0.99 4 1.98 4 3 C1 5.1875 1 5.1875 -2 7 C-2.33 6.01 -2.66 5.02 -3 4 C-2.34 3.67 -1.68 3.34 -1 3 C-0.67 2.01 -0.34 1.02 0 0 Z " fill="#DDD3CA" transform="translate(3169,1249)"/>
<path d="M0 0 C2.475 0.495 2.475 0.495 5 1 C5 2.32 5 3.64 5 5 C4.01 5.33 3.02 5.66 2 6 C1.34 4.02 0.68 2.04 0 0 Z " fill="#DCD1C8" transform="translate(4476,1592)"/>
<path d="M0 0 C0.33 0.66 0.66 1.32 1 2 C-0.28965176 3.37562854 -1.62689293 4.70766393 -3 6 C-3.66 6 -4.32 6 -5 6 C-4.67 4.35 -4.34 2.7 -4 1 C-2.68 0.67 -1.36 0.34 0 0 Z " fill="#DBD1C8" transform="translate(4502,1421)"/>
<path d="M0 0 C1.875 0.25 1.875 0.25 4 1 C5.25 3.0625 5.25 3.0625 6 5 C4.35 5.33 2.7 5.66 1 6 C1.33 5.01 1.66 4.02 2 3 C1.34 3 0.68 3 0 3 C0 2.01 0 1.02 0 0 Z " fill="#DBD2C9" transform="translate(4686,1419)"/>
<path d="M0 0 C-0.33 1.32 -0.66 2.64 -1 4 C-2.65 4.33 -4.3 4.66 -6 5 C-5.625 3.0625 -5.625 3.0625 -5 1 C-3 0 -3 0 0 0 Z " fill="#E7D2C1" transform="translate(3247,2121)"/>
<path d="M0 0 C1.32 0 2.64 0 4 0 C4 2 4 2 2.75 3.625 C1 5 1 5 -3 5 C-1.125 1.125 -1.125 1.125 0 0 Z " fill="#E0D6CD" transform="translate(1817,1524)"/>
<path d="M0 0 C1.32 0 2.64 0 4 0 C4.33 1.32 4.66 2.64 5 4 C3.02 4 1.04 4 -1 4 C-0.67 2.68 -0.34 1.36 0 0 Z " fill="#F9F4ED" transform="translate(3543,1518)"/>
<path d="M0 0 C2.97 0.495 2.97 0.495 6 1 C6 1.66 6 2.32 6 3 C3.69 3.33 1.38 3.66 -1 4 C-0.67 2.68 -0.34 1.36 0 0 Z " fill="#FBF5EE" transform="translate(988,1236)"/>
<path d="M0 0 C2.31 0.33 4.62 0.66 7 1 C7 1.99 7 2.98 7 4 C4.69 3.67 2.38 3.34 0 3 C0 2.01 0 1.02 0 0 Z " fill="#E0D7CF" transform="translate(2102,1050)"/>
<path d="M0 0 C0.66 0 1.32 0 2 0 C1.75 2.375 1.75 2.375 1 5 C-1.0625 6.3125 -1.0625 6.3125 -3 7 C-2.38722388 4.03824877 -1.74627478 2.61941217 0 0 Z " fill="#E2D9D0" transform="translate(3853,720)"/>
<path d="M0 0 C0.99 0 1.98 0 3 0 C2.67 1.65 2.34 3.3 2 5 C0.68 5 -0.64 5 -2 5 C-1.125 1.125 -1.125 1.125 0 0 Z " fill="#DAD0C8" transform="translate(2905,501)"/>
<path d="M0 0 C2.31 0 4.62 0 7 0 C6.67 0.99 6.34 1.98 6 3 C4.02 3 2.04 3 0 3 C0 2.01 0 1.02 0 0 Z " fill="#E2D8CF" transform="translate(1920,1975)"/>
<path d="M0 0 C0 0.66 0 1.32 0 2 C-4.455 2.495 -4.455 2.495 -9 3 C-9 2.34 -9 1.68 -9 1 C-6.04335481 -0.4783226 -3.25770263 -0.06032783 0 0 Z " fill="#F6EFE8" transform="translate(4832,1894)"/>
<path d="M0 0 C1.32 0.33 2.64 0.66 4 1 C3.34 2.32 2.68 3.64 2 5 C0.68 5 -0.64 5 -2 5 C-1.34 3.35 -0.68 1.7 0 0 Z " fill="#E1D8CE" transform="translate(1957,1614)"/>
<path d="M0 0 C3.24271506 0.5590888 4.93057424 1.4132178 7 4 C7 4.66 7 5.32 7 6 C4 6 4 6 1.8125 4.125 C0 2 0 2 0 0 Z " fill="#F8F1E8" transform="translate(2618,1040)"/>
<path d="M0 0 C1.32 0 2.64 0 4 0 C4 0.99 4 1.98 4 3 C2.35 3.66 0.7 4.32 -1 5 C-1.33 4.01 -1.66 3.02 -2 2 C-1.34 1.34 -0.68 0.68 0 0 Z " fill="#F7F1E9" transform="translate(3544,421)"/>
<path d="M0 0 C0 0.99 0 1.98 0 3 C-0.66 3 -1.32 3 -2 3 C-2 3.66 -2 4.32 -2 5 C-2.99 5 -3.98 5 -5 5 C-5 3.68 -5 2.36 -5 1 C-3 0 -3 0 0 0 Z " fill="#CDB8A8" transform="translate(2396,3298)"/>
<path d="M0 0 C0.66 0 1.32 0 2 0 C1.45912682 3.78611227 -0.11722332 5.55400767 -3 8 C-3.66 8 -4.32 8 -5 8 C-3.98379995 4.95139986 -3.22608429 4.13333078 -1 2 C-0.67 1.34 -0.34 0.68 0 0 Z " fill="#E1CFC0" transform="translate(777,2585)"/>
<path d="M0 0 C2.64 0 5.28 0 8 0 C8 0.66 8 1.32 8 2 C4.71303767 2.79953138 3.28976808 3.09658936 0 2 C0 1.34 0 0.68 0 0 Z " fill="#FAF2E8" transform="translate(924,2260)"/>
<path d="M0 0 C-0.75 1.9375 -0.75 1.9375 -2 4 C-4.125 4.75 -4.125 4.75 -6 5 C-5.625 3.0625 -5.625 3.0625 -5 1 C-3 0 -3 0 0 0 Z " fill="#E4DBD2" transform="translate(2166,1881)"/>
<path d="M0 0 C0.33 0.99 0.66 1.98 1 3 C-1.31 3.33 -3.62 3.66 -6 4 C-5.67 3.01 -5.34 2.02 -5 1 C-2 0 -2 0 0 0 Z " fill="#F9F3EB" transform="translate(1813,1805)"/>
<path d="M0 0 C0 0.66 0 1.32 0 2 C-2.70879335 3.35439668 -5.00933268 3.06501451 -8 3 C-8 2.34 -8 1.68 -8 1 C-5.07175348 0.02391783 -3.04386724 -0.08226668 0 0 Z " fill="#D7CCC3" transform="translate(4566,1331)"/>
<path d="M0 0 C0.33 0.66 0.66 1.32 1 2 C0.22265625 3.9453125 0.22265625 3.9453125 -0.9375 6.125 C-1.31777344 6.84945312 -1.69804687 7.57390625 -2.08984375 8.3203125 C-2.39019531 8.87460938 -2.69054687 9.42890625 -3 10 C-3.66 10 -4.32 10 -5 10 C-3.84414715 6.08788267 -2.64465038 3.1254959 0 0 Z " fill="#E1D2C5" transform="translate(319,3192)"/>
<path d="M0 0 C0.66 0 1.32 0 2 0 C2 2.31 2 4.62 2 7 C1.01 7 0.02 7 -1 7 C-0.67 4.69 -0.34 2.38 0 0 Z " fill="#C4B1A1" transform="translate(2590,2351)"/>
<path d="M0 0 C0 0.99 0 1.98 0 3 C-1.98 3.66 -3.96 4.32 -6 5 C-5.6875 3.0625 -5.6875 3.0625 -5 1 C-2 0 -2 0 0 0 Z " fill="#E1D7CE" transform="translate(987,2312)"/>
<path d="M0 0 C0.66 0 1.32 0 2 0 C1.34 1.98 0.68 3.96 0 6 C-0.99 5.67 -1.98 5.34 -3 5 C-1.125 1.125 -1.125 1.125 0 0 Z " fill="#CAB5A5" transform="translate(3086,2099)"/>
<path d="M0 0 C2.97 0.495 2.97 0.495 6 1 C4.35 2.65 2.7 4.3 1 6 C0 5 0 5 -0.0625 2.4375 C-0.041875 1.633125 -0.02125 0.82875 0 0 Z " fill="#E0D6CD" transform="translate(3486,1829)"/>
<path d="M0 0 C1.98 0 3.96 0 6 0 C5.67 0.99 5.34 1.98 5 3 C3.35 3 1.7 3 0 3 C0 2.01 0 1.02 0 0 Z " fill="#D9D0C7" transform="translate(4971,1787)"/>
<path d="M0 0 C0 0.66 0 1.32 0 2 C-0.66 2 -1.32 2 -2 2 C-2.33 2.99 -2.66 3.98 -3 5 C-3.99 5 -4.98 5 -6 5 C-6 4.01 -6 3.02 -6 2 C-3 0 -3 0 0 0 Z " fill="#DED5CC" transform="translate(3034,1620)"/>
<path d="M0 0 C2.31 0 4.62 0 7 0 C6.67 0.99 6.34 1.98 6 3 C3.03 2.505 3.03 2.505 0 2 C0 1.34 0 0.68 0 0 Z " fill="#F9F1E8" transform="translate(1827,1281)"/>
<path d="M0 0 C0.99 0.33 1.98 0.66 3 1 C1.02 2.98 -0.96 4.96 -3 7 C-3.66 6.67 -4.32 6.34 -5 6 C-3.35 4.02 -1.7 2.04 0 0 Z " fill="#BDB1A8" transform="translate(3730,2801)"/>
<path d="M0 0 C1.65 0 3.3 0 5 0 C5.33 0.99 5.66 1.98 6 3 C4.02 3 2.04 3 0 3 C0 2.01 0 1.02 0 0 Z " fill="#CCB6A8" transform="translate(792,2782)"/>
<path d="M0 0 C1.32 0 2.64 0 4 0 C3.67 1.32 3.34 2.64 3 4 C1.68 3.67 0.36 3.34 -1 3 C-0.67 2.01 -0.34 1.02 0 0 Z " fill="#D1B7A6" transform="translate(669,2712)"/>
<path d="M0 0 C0 1.32 0 2.64 0 4 C-1.65 4 -3.3 4 -5 4 C-5 3.01 -5 2.02 -5 1 C-2 0 -2 0 0 0 Z " fill="#CDB7A7" transform="translate(3751,2338)"/>
<path d="M0 0 C-0.33 1.32 -0.66 2.64 -1 4 C-2.98 4.33 -4.96 4.66 -7 5 C-2.25 0 -2.25 0 0 0 Z " fill="#D7CDC4" transform="translate(149,2312)"/>
<path d="M0 0 C-0.33 0.99 -0.66 1.98 -1 3 C-3.31 3 -5.62 3 -8 3 C-7 1 -7 1 -5.125 0.375 C-3 0 -3 0 0 0 Z " fill="#E4DBD2" transform="translate(970,2289)"/>
<path d="M0 0 C1.98 0 3.96 0 6 0 C5.67 0.99 5.34 1.98 5 3 C3.35 3 1.7 3 0 3 C0 2.01 0 1.02 0 0 Z " fill="#DFD6CD" transform="translate(872,2239)"/>
<path d="M0 0 C-0.33 0.99 -0.66 1.98 -1 3 C-3.0625 3.6875 -3.0625 3.6875 -5 4 C-5.33 3.01 -5.66 2.02 -6 1 C-4 0 -4 0 0 0 Z " fill="#D0BBAA" transform="translate(2263,2125)"/>
<path d="M0 0 C5.75 0.75 5.75 0.75 8 3 C5.36 3 2.72 3 0 3 C0 2.01 0 1.02 0 0 Z " fill="#E5D4C5" transform="translate(3342,1935)"/>
<path d="M0 0 C2.475 0.495 2.475 0.495 5 1 C5 1.99 5 2.98 5 4 C3.35 3.67 1.7 3.34 0 3 C0 2.01 0 1.02 0 0 Z " fill="#FAF5ED" transform="translate(4049,1764)"/>
<path d="M0 0 C1.98 0 3.96 0 6 0 C5.01 0.495 5.01 0.495 4 1 C3.67 1.99 3.34 2.98 3 4 C2.01 4 1.02 4 0 4 C0 2.68 0 1.36 0 0 Z " fill="#E3DAD1" transform="translate(1430,1765)"/>
<path d="M0 0 C-0.33 0.99 -0.66 1.98 -1 3 C-2.65 3.33 -4.3 3.66 -6 4 C-6 3.01 -6 2.02 -6 1 C-3 0 -3 0 0 0 Z " fill="#E2D9D0" transform="translate(3053,1616)"/>
<path d="M0 0 C1.98 0 3.96 0 6 0 C6 0.99 6 1.98 6 3 C4.02 3 2.04 3 0 3 C0 2.01 0 1.02 0 0 Z " fill="#DFD5CC" transform="translate(3130,1551)"/>
<path d="M0 0 C1.98 0 3.96 0 6 0 C5.67 0.99 5.34 1.98 5 3 C3.35 3 1.7 3 0 3 C0 2.01 0 1.02 0 0 Z " fill="#DBD1C8" transform="translate(4743,1542)"/>
<path d="M0 0 C-0.33 0.99 -0.66 1.98 -1 3 C-2.65 3.33 -4.3 3.66 -6 4 C-6 3.01 -6 2.02 -6 1 C-4 0 -4 0 0 0 Z " fill="#E0D6CD" transform="translate(4587,1410)"/>
<path d="M0 0 C1.98 0 3.96 0 6 0 C6 0.66 6 1.32 6 2 C3.69 2.33 1.38 2.66 -1 3 C-0.67 2.01 -0.34 1.02 0 0 Z " fill="#FBF6ED" transform="translate(4559,1328)"/>
</svg>
